<svg width="22" height="25" viewBox="0 0 22 25" fill="none" xmlns="http://www.w3.org/2000/svg">
<path fill-rule="evenodd" clip-rule="evenodd" d="M20.9689 17.8784C19.4398 17.8784 18.208 16.6303 18.208 15.1013V8.92029C18.208 5.4678 15.8847 2.46375 12.5511 1.59388L11.2489 1.26429V0.588925C11.2489 0.259344 10.9734 0 10.66 0C10.3304 0 10.0711 0.259344 10.0711 0.588925V1.26429L8.76899 1.59388C5.43537 2.46375 3.09048 5.46239 3.09048 8.92029V15.1013C3.09048 16.6303 1.85861 17.8784 0.329573 17.8784C0.156678 17.8784 0 18.0189 0 18.208C0 18.3809 0.156678 18.5376 0.329573 18.5376H20.9689C21.158 18.5376 21.2985 18.3809 21.2985 18.208C21.2985 18.0351 21.158 17.8784 20.9689 17.8784Z" fill="currentColor"/>
<path fill-rule="evenodd" clip-rule="evenodd" d="M7.04544 20.5742C7.04544 22.5679 8.66092 24.1834 10.6546 24.1834C12.6483 24.1834 14.2638 22.5679 14.2638 20.5742H7.04544Z" fill="currentColor"/>
</svg>
