<svg width="21" height="20" viewBox="0 0 21 20" fill="none" xmlns="http://www.w3.org/2000/svg">
<path d="M15.0595 16.6206C15.0595 16.6206 15.0595 16.6371 15.0595 16.6427C15.0651 18.0894 16.2467 19.26 17.6934 19.249C19.1402 19.2434 20.3108 18.0618 20.2997 16.6151V8.3379H15.0595V16.6206Z" fill="currentColor"/>
<path d="M13.5631 16.6206V0H0.299805V16.6206C0.299805 18.4869 1.80725 19.9999 3.67362 19.9999H15.3135C14.2147 19.2269 13.5576 17.9624 13.5576 16.6206H13.5631ZM1.35999 6.36662H2.62448C2.67417 6.48258 2.71283 6.60406 2.77909 6.72002C3.04966 7.18937 3.73436 7.33846 4.18162 7.02924C4.55158 6.76971 4.55158 6.07949 4.15401 5.80892C3.94419 5.66536 3.70123 5.56596 3.46379 5.47761C3.01653 5.31748 2.57478 5.16287 2.18273 4.88126C1.57534 4.44504 1.40416 3.83764 1.50355 3.13638C1.60295 2.42407 2.0226 1.96024 2.68522 1.70623C2.77357 1.6731 2.86191 1.65102 2.96683 1.61236V0.993922H4.0491V1.60132C4.53502 1.70071 4.95467 1.88293 5.25285 2.2805C5.47372 2.57868 5.57864 2.92103 5.61177 3.30755H4.33071C4.29758 3.21368 4.26997 3.11981 4.23132 3.03146C4.0988 2.73881 3.85032 2.62285 3.54662 2.61181C3.27053 2.60076 3.02205 2.67255 2.86744 2.93207C2.67417 3.25786 2.757 3.67751 3.08831 3.86525C3.33127 4.0033 3.60736 4.09165 3.86688 4.19656C4.14849 4.31252 4.43562 4.40087 4.70619 4.53339C5.44059 4.89231 5.7719 5.50522 5.74429 6.31141C5.71116 7.35502 5.24733 7.89616 4.1264 8.18881V8.95634H3.03309V8.18329C2.45882 8.06181 1.97291 7.82438 1.65816 7.32189C1.47595 7.03476 1.37103 6.72002 1.35999 6.3611V6.36662ZM1.85143 14.6824V13.6996H11.9176V14.6824H1.85143ZM11.9232 16.9243H4.93811V15.9414H11.9232V16.9243ZM11.9232 12.4461H1.86247V11.4632H11.9232V12.4461Z" fill="currentColor"/>
</svg>
