<svg width="22" height="20" viewBox="0 0 22 20" fill="none" xmlns="http://www.w3.org/2000/svg">
<path fill-rule="evenodd" clip-rule="evenodd" d="M2.06587 6.49173L17.155 3.07213L16.9462 2.15233C16.8898 1.88711 16.6246 1.72347 16.365 1.78554L2.22385 4.96815C1.95864 5.02458 1.79501 5.28979 1.85708 5.54937C1.93044 5.86537 1.99816 6.18138 2.07152 6.49738L2.06587 6.49173ZM1.94171 4.12735L16.2578 0.905247C16.9406 0.752888 17.6234 1.18175 17.7757 1.86454L19.2768 8.49497H18.3795L17.6967 5.49293L2.60757 8.91255L3.53866 13.0319L3.62332 13.3987C3.65718 13.5454 3.80387 13.6413 3.95058 13.6075L4.06345 13.5792V14.4595H4.04654C3.48225 14.5893 2.91793 14.2338 2.7825 13.6695L0.965493 5.65094C0.886492 5.30673 0.942909 4.99072 1.12913 4.69164C1.31534 4.39257 1.58623 4.20636 1.93044 4.133L1.94171 4.12735ZM5.66041 8.73761C4.96068 8.73761 4.39075 9.30755 4.39075 10.0073V18.2572C4.39075 18.9569 4.96068 19.5269 5.66041 19.5269H20.3433C21.043 19.5269 21.6129 18.9569 21.6129 18.2572V10.0073C21.6129 9.30755 21.043 8.73761 20.3433 8.73761H5.66041ZM20.0329 12.4337V10.7521C20.0329 10.6449 19.9483 10.5546 19.8354 10.5546H16.0772C15.97 10.5546 15.8797 10.6449 15.8797 10.7521V12.4337C15.8797 12.5409 15.97 12.6312 16.0772 12.6312H19.8354C19.9426 12.6312 20.0329 12.5466 20.0329 12.4337ZM17.2622 17.5236C17.155 17.5236 17.0647 17.4334 17.0647 17.3261V16.9368C17.0647 16.8296 17.155 16.7393 17.2622 16.7393H19.8354C19.9426 16.7393 20.0329 16.8296 20.0329 16.9368V17.3261C20.0329 17.4334 19.9426 17.5236 19.8354 17.5236H17.2622ZM13.6734 17.5236C13.5661 17.5236 13.4758 17.4334 13.4758 17.3261V16.9368C13.4758 16.8296 13.5661 16.7393 13.6734 16.7393H16.2465C16.3537 16.7393 16.444 16.8296 16.444 16.9368V17.3261C16.444 17.4334 16.3537 17.5236 16.2465 17.5236H13.6734ZM10.0901 17.5236C9.98287 17.5236 9.8926 17.4334 9.8926 17.3261V16.9368C9.8926 16.8296 9.98287 16.7393 10.0901 16.7393H12.6633C12.7705 16.7393 12.8608 16.8296 12.8608 16.9368V17.3261C12.8608 17.4334 12.7705 17.5236 12.6633 17.5236H10.0901ZM6.5012 17.5236C6.39398 17.5236 6.30371 17.4334 6.30371 17.3261V16.9368C6.30371 16.8296 6.39398 16.7393 6.5012 16.7393H9.07436C9.18158 16.7393 9.27185 16.8296 9.27185 16.9368V17.3261C9.27185 17.4334 9.18158 17.5236 9.07436 17.5236H6.5012Z" fill="currentColor"/>
</svg>
