<svg width="19" height="24" viewBox="0 0 19 24" fill="none" xmlns="http://www.w3.org/2000/svg">
<path fill-rule="evenodd" clip-rule="evenodd" d="M9.64452 13.018C10.2929 14.1094 11.3789 14.8712 12.627 15.109C12.8647 14.8604 13.1727 14.693 13.513 14.6389C14.4478 14.5038 15.3554 15.0279 15.7066 15.9032C15.8741 16.3192 15.8417 16.7893 15.6202 17.1783C15.3987 17.5673 15.0043 17.8266 14.5612 17.8915C14.1074 17.9617 13.6427 17.8753 13.2483 17.643C12.5999 17.2918 12.2271 16.5894 12.2974 15.8546C10.7683 15.5034 9.47703 14.493 8.77464 13.0937C8.00742 12.9802 7.33205 12.5426 6.90522 11.8996C5.65714 10.1599 5.83003 7.19903 7.44552 5.82127V0.158979C7.06731 0.218412 4.71702 0.439927 2.34512 2.73619C0.0272522 5.08107 -0.188868 8.58217 0.810679 11.6024C1.30235 13.1045 3.11774 13.5043 3.13395 18.5723C5.30054 19.3827 8.43425 20.7335 10.536 22.3706C10.9196 21.3656 11.9408 19.4476 13.9399 20.0689C14.6855 20.2688 15.685 20.5335 16.436 18.81C16.6089 18.4156 17.2411 15.0117 17.4032 14.1472C17.4248 14.0284 17.5274 13.9473 17.6517 13.9473C18.4243 13.9473 19.3807 13.8825 18.6999 12.4615C18.3109 11.7807 18.0191 11.0459 17.8246 10.2841C17.6733 9.82485 17.7544 8.9604 17.9759 8.52816C18.5162 5.71862 16.9871 3.82218 15.8147 2.49845C14.3613 0.801924 12.3622 0.207595 10.6225 0.0292969V5.82127C12.2325 7.19903 12.4108 10.1599 11.1573 11.8996C10.7953 12.4345 10.2659 12.8289 9.65532 13.018H9.64452Z" fill="currentColor"/>
<path fill-rule="evenodd" clip-rule="evenodd" d="M10.6494 23.4993C10.2604 23.5372 9.84978 23.5588 9.44997 23.5588C7.62917 23.5588 5.89482 23.159 4.35497 22.4296C3.8579 22.1378 3.37163 21.873 2.89617 21.6299C2.29104 21.2409 1.71833 20.8032 1.19964 20.317C1.44278 19.8685 1.62648 19.3931 1.77236 18.9068C3.71202 19.5984 8.29913 21.3598 10.6548 23.4939L10.6494 23.4993Z" fill="currentColor"/>
</svg>
