<svg width="32" height="32" viewBox="0 0 32 32" fill="none" xmlns="http://www.w3.org/2000/svg">
<path d="M30.9682 15.454H27.8106C27.562 12.8061 26.3997 10.3261 24.5226 8.44894C22.6392 6.56561 20.1654 5.4033 17.5176 5.16089V2.00334C17.5176 1.4315 17.0576 0.971558 16.4858 0.971558C15.9139 0.971558 15.454 1.4315 15.454 2.00334V5.16089C12.8061 5.40951 10.3261 6.57182 8.44896 8.44894C6.56562 10.3323 5.40331 12.8061 5.1609 15.454H2.00335C1.43152 15.454 0.971558 15.9139 0.971558 16.4857C0.971558 17.0576 1.43152 17.5176 2.00335 17.5176H5.1609C5.40952 20.1654 6.57184 22.6454 8.44896 24.5226C10.3323 26.4059 12.8061 27.5682 15.454 27.8106V30.9682C15.454 31.54 15.9139 32 16.4858 32C17.0576 32 17.5176 31.54 17.5176 30.9682V27.8106C20.1654 27.562 22.6455 26.3997 24.5226 24.5226C26.4059 22.6392 27.5682 20.1654 27.8106 17.5176H30.9682C31.54 17.5176 32 17.0576 32 16.4857C32 15.9139 31.54 15.454 30.9682 15.454ZM16.4858 22.6952C14.8386 22.6952 13.2599 22.0425 12.0975 20.874C10.9352 19.7117 10.2764 18.1329 10.2764 16.4857C10.2764 14.8386 10.929 13.2598 12.0975 12.0975C13.2599 10.9352 14.8386 10.2763 16.4858 10.2763C18.1329 10.2763 19.7117 10.929 20.874 12.0975C22.0363 13.2598 22.6952 14.8386 22.6952 16.4857C22.6952 18.1329 22.0425 19.7117 20.874 20.874C19.7117 22.0363 18.1329 22.6952 16.4858 22.6952Z" fill="currentColor"/>
<path d="M20.6257 16.4917C20.6257 18.779 18.7734 20.6313 16.4861 20.6313C14.1987 20.6313 12.3465 18.779 12.3465 16.4917C12.3465 14.2043 14.1987 12.3521 16.4861 12.3521C18.7734 12.3521 20.6257 14.2043 20.6257 16.4917Z" fill="currentColor"/>
</svg>
