<svg width="42" height="42" viewBox="0 0 42 42" fill="none" xmlns="http://www.w3.org/2000/svg">
<path d="M21.0003 25.6299C23.5575 25.6299 25.6306 23.5568 25.6306 20.9995C25.6306 18.4423 23.5575 16.3692 21.0003 16.3692C18.443 16.3692 16.3699 18.4423 16.3699 20.9995C16.3699 23.5568 18.443 25.6299 21.0003 25.6299Z" fill="currentColor"/>
<path d="M21.0003 12.8036C22.1014 12.8036 22.994 11.911 22.994 10.8099C22.994 9.70881 22.1014 8.81621 21.0003 8.81621C19.8992 8.81621 19.0066 9.70881 19.0066 10.8099C19.0066 11.911 19.8992 12.8036 21.0003 12.8036Z" fill="currentColor"/>
<path d="M21.0003 33.1832C22.1014 33.1832 22.994 32.2906 22.994 31.1895C22.994 30.0885 22.1014 29.1958 21.0003 29.1958C19.8992 29.1958 19.0066 30.0885 19.0066 31.1895C19.0066 32.2906 19.8992 33.1832 21.0003 33.1832Z" fill="currentColor"/>
<path d="M31.2875 22.9933C32.3886 22.9933 33.2812 22.1007 33.2812 20.9996C33.2812 19.8985 32.3886 19.0059 31.2875 19.0059C30.1864 19.0059 29.2938 19.8985 29.2938 20.9996C29.2938 22.1007 30.1864 22.9933 31.2875 22.9933Z" fill="currentColor"/>
<path d="M10.7184 22.9933C11.8195 22.9933 12.7121 22.1007 12.7121 20.9996C12.7121 19.8985 11.8195 19.0059 10.7184 19.0059C9.61736 19.0059 8.72475 19.8985 8.72475 20.9996C8.72475 22.1007 9.61736 22.9933 10.7184 22.9933Z" fill="currentColor"/>
<path d="M17.6612 10.8097C17.6612 10.4477 17.7152 10.0965 17.8233 9.77233C13.9493 10.8637 10.8913 13.9272 9.78368 17.8011C10.0808 17.7093 10.3888 17.6661 10.713 17.6661C11.1722 17.6661 11.6045 17.7579 12.0097 17.9362H12.0205C12.9498 15.1699 15.138 12.9709 17.8881 12.0146C17.7422 11.6526 17.6612 11.2311 17.6612 10.8151V10.8097ZM29.9907 17.9362C30.3798 17.7633 30.8282 17.6661 31.2875 17.6661C31.6116 17.6661 31.9358 17.7201 32.233 17.8011C31.1254 13.9272 28.0619 10.8691 24.1772 9.76152C24.2852 10.0857 24.3392 10.4477 24.3392 10.8151C24.3392 11.2311 24.2582 11.6526 24.1123 12.0146C26.8786 12.9709 29.0614 15.1699 29.9961 17.9362H29.9907ZM29.9907 24.074C29.0614 26.8403 26.8624 29.0393 24.0961 29.9848C24.2582 30.363 24.3392 30.7682 24.3392 31.2005C24.3392 31.5625 24.2852 31.9137 24.1772 32.2378C28.0511 31.1302 31.1092 28.083 32.233 24.209C31.9358 24.2901 31.6116 24.3441 31.2875 24.3441C30.8282 24.3441 30.3852 24.2523 29.9907 24.074ZM17.9043 29.9794C15.138 29.0339 12.9552 26.8349 12.0205 24.0686C11.6153 24.2415 11.1722 24.3387 10.713 24.3387C10.3888 24.3387 10.0808 24.3009 9.78368 24.2036C10.8913 28.0776 13.9547 31.1248 17.8233 32.2162C17.7152 31.8921 17.6612 31.5571 17.6612 31.1897C17.6612 30.7574 17.7422 30.3522 17.9043 29.974V29.9794Z" fill="currentColor"/>
</svg>
