<svg width="25" height="21" viewBox="0 0 25 21" fill="none" xmlns="http://www.w3.org/2000/svg">
<path d="M1.98977 19.7772H9.95914C15.1622 19.8312 19.5224 15.8438 19.9222 10.657C20.2518 5.30804 16.1833 0.704717 10.8344 0.375136C5.48548 0.0455558 0.882161 4.11399 0.552581 9.46292C0.36888 12.4454 1.56833 15.3468 3.80516 17.3242L1.69801 18.9019C1.48189 19.064 1.43867 19.3666 1.60076 19.5827C1.69261 19.7069 1.83849 19.7772 1.98977 19.7772ZM14.1194 8.78214C14.8326 8.78214 15.4107 9.36026 15.4107 10.0735C15.4107 10.7866 14.8326 11.3648 14.1194 11.3648C13.4062 11.3648 12.8281 10.7866 12.8281 10.0735C12.8281 9.36026 13.4062 8.78214 14.1194 8.78214ZM10.2401 8.78214C10.9533 8.78214 11.5314 9.36026 11.5314 10.0735C11.5314 10.7866 10.9533 11.3648 10.2401 11.3648C9.52689 11.3648 8.94877 10.7866 8.94877 10.0735C8.94877 9.36026 9.52689 8.78214 10.2401 8.78214ZM6.35535 8.78214C7.06855 8.78214 7.64667 9.36026 7.64667 10.0735C7.64667 10.7866 7.06855 11.3648 6.35535 11.3648C5.64216 11.3648 5.06406 10.7866 5.06406 10.0735C5.06406 9.36026 5.64216 8.78214 6.35535 8.78214Z" fill="currentColor"/>
<path d="M21.7269 18.9613C23.5801 17.3188 24.5743 14.9145 24.4284 12.4345C24.2609 9.71684 22.7589 7.39358 20.6085 6.06445C21.1758 7.50704 21.4298 9.09551 21.3325 10.738C20.9759 15.3089 17.907 19.091 13.8008 20.5336C14.6761 20.847 15.627 21.0145 16.6157 20.9982H23.229C23.3586 20.9982 23.4829 20.9442 23.5531 20.8415C23.6828 20.6578 23.6504 20.4147 23.4667 20.2742L21.7269 18.9559V18.9613Z" fill="currentColor"/>
</svg>
