<svg width="75" height="79" viewBox="0 0 75 79" fill="none" xmlns="http://www.w3.org/2000/svg">
<path d="M37.517 0.481445L47.7206 7.92486L60.3522 7.90155L64.2313 19.9213L74.464 27.3259L70.5383 39.3302L74.464 51.3344L64.2313 58.739L60.3522 70.7588L47.7206 70.7354L37.517 78.1789L27.3133 70.7354L14.6817 70.7588L10.8026 58.739L0.569893 51.3344L4.49555 39.3302L0.569893 27.3259L10.8026 19.9213L14.6817 7.90155L27.3133 7.92486L37.517 0.481445Z" fill="#39CC59"/>
<path fill-rule="evenodd" clip-rule="evenodd" d="M32.0011 54.2662L31.9104 54.1896L31.8348 54.2662L18.8942 41.1531L23.4899 36.4961L31.9104 45.0288L52.3039 24.3634L56.8996 29.0203L32.0011 54.2509V54.2662Z" fill="white"/>
</svg>
