<svg width="22" height="22" viewBox="0 0 22 22" fill="none" xmlns="http://www.w3.org/2000/svg">
<path d="M21.0608 10.5304C21.0608 4.71463 16.3461 7.62645e-07 10.5304 0C4.7146 -7.62645e-07 7.62645e-07 4.71463 0 10.5304C-7.62645e-07 16.3462 4.7146 21.0608 10.5304 21.0608C16.3461 21.0608 21.0608 16.3462 21.0608 10.5304Z" fill="white"/>
<path d="M3.65231 8.68777L5.19214 7.14794C5.42447 6.91561 5.79729 6.91561 6.02422 7.14794L10.1089 11.2326C10.3412 11.4649 10.714 11.4649 10.9409 11.2326L15.0255 7.14794C15.2579 6.91561 15.6307 6.91561 15.8576 7.14794L17.3974 8.68777C17.6298 8.9201 17.6298 9.28752 17.3974 9.51985L10.9571 15.9764C10.7248 16.2087 10.352 16.2087 10.125 15.9764L3.6469 9.51985C3.41457 9.28752 3.41457 8.91469 3.6469 8.68777H3.65231Z" fill="#202127"/>
</svg>
