<svg width="22" height="22" viewBox="0 0 22 22" fill="none" xmlns="http://www.w3.org/2000/svg">
<path d="M0 10.5304C-2.54215e-07 16.3461 4.71463 21.0608 10.5304 21.0608C16.3462 21.0608 21.0608 16.3461 21.0608 10.5304C21.0608 4.7146 16.3462 2.54215e-07 10.5304 0C4.71463 -2.54215e-07 2.54215e-07 4.7146 0 10.5304Z" fill="white"/>
<path d="M17.4085 12.373L15.8686 13.9128C15.6363 14.1451 15.2635 14.1451 15.0365 13.9128L10.9519 9.82818C10.7196 9.59586 10.3468 9.59586 10.1199 9.82818L6.03523 13.9128C5.8029 14.1451 5.43007 14.1451 5.20315 13.9128L3.66332 12.373C3.43099 12.1407 3.43099 11.7732 3.66332 11.5409L10.1036 5.0844C10.336 4.85207 10.7088 4.85207 10.9357 5.0844L17.4139 11.5409C17.6462 11.7732 17.6462 12.1461 17.4139 12.373H17.4085Z" fill="#232429"/>
</svg>
