<svg width="25" height="24" viewBox="0 0 25 24" fill="none" xmlns="http://www.w3.org/2000/svg">
<path d="M15.8153 5.6354C15.8532 5.61919 15.8856 5.60298 15.9234 5.59218C15.3345 3.37697 16.6528 1.10232 18.868 0.5134C21.0832 -0.0755222 23.3579 1.2428 23.9468 3.45801C24.5357 5.67323 23.2174 7.94787 21.0022 8.53679C19.4515 8.94742 17.8036 8.42874 16.7663 7.20767C16.7339 7.22928 16.7014 7.25089 16.669 7.2725L11.3309 10.0658C11.1364 9.47691 10.8554 8.9204 10.4934 8.41792L15.8099 5.6354H15.8153ZM19.9324 15.1392C18.7113 15.1392 17.5551 15.6741 16.7663 16.6088C16.7339 16.5872 16.7014 16.5656 16.669 16.544L11.3147 13.7452C11.131 14.3396 10.904 14.9123 10.6393 15.4742L15.8153 18.1811C15.8532 18.1973 15.891 18.2135 15.9288 18.2243C15.3399 20.4395 16.6582 22.7142 18.8734 23.3031C21.0886 23.892 23.3633 22.5737 23.9522 20.3585C24.5411 18.1433 23.2228 15.8686 21.0076 15.2797C20.6564 15.1878 20.2998 15.1392 19.9378 15.1392H19.9324ZM5.39844 7.2671C2.70236 7.2671 0.51416 9.45529 0.51416 12.1514C0.51416 15.8146 5.39844 21.2229 5.39844 21.2229C5.39844 21.2229 10.2827 15.8146 10.2827 12.1514C10.2827 9.45529 8.09452 7.2671 5.39844 7.2671ZM5.39844 13.8965C4.43671 13.8965 3.65328 13.1131 3.65328 12.1514C3.65328 11.1896 4.43671 10.4062 5.39844 10.4062C6.36017 10.4062 7.14359 11.1896 7.14359 12.1514C7.14359 13.1131 6.36017 13.8965 5.39844 13.8965Z" fill="currentColor"/>
</svg>
