<svg width="19" height="21" viewBox="0 0 19 21" fill="none" xmlns="http://www.w3.org/2000/svg">
<path d="M17.4567 3.51669H15.3009V4.19746H17.4567C17.9213 4.19746 18.3211 4.58647 18.3211 5.06193V19.3852C18.3211 19.8606 17.9213 20.2497 17.4567 20.2497H6.54268C6.06722 20.2497 5.67822 19.8606 5.67822 19.3852V18.2668H4.99744V19.3852C4.99744 20.2497 5.69441 20.9466 6.54268 20.9466H17.4567C18.3103 20.9466 19.0019 20.2497 19.0019 19.3852V5.07274C19.0019 4.20827 18.3049 3.51129 17.4567 3.51129V3.51669Z" fill="currentColor"/>
<path fill-rule="evenodd" clip-rule="evenodd" d="M17.4566 4.89455H15.3008V10.3245H16.4355V11.1404H15.3008V11.9346H16.4355V12.7613H15.3008V13.5771H16.4355V14.4038H15.3008V15.2196H16.4355V16.0463H15.29C15.29 16.338 15.2306 16.619 15.1171 16.8621H16.43V17.6888H14.5066C14.1068 18.0562 13.5935 18.2615 13.0208 18.2615H6.36974V19.3799C6.36974 19.4771 6.44539 19.5528 6.54264 19.5528H17.4566C17.5431 19.5528 17.6295 19.4771 17.6295 19.3799V5.06744C17.6295 4.97019 17.5431 4.88374 17.4566 4.88374V4.89455Z" fill="currentColor"/>
<path d="M14.5715 1.66888C14.5715 0.804403 13.8691 0.107422 13.0209 0.107422H5.35407L0.561646 4.89985V15.9813C0.561646 16.8458 1.26403 17.532 2.11229 17.532H13.0209C13.8745 17.532 14.5715 16.8404 14.5715 15.9813V1.66888ZM13.88 15.9813C13.88 16.4514 13.4855 16.8458 13.0155 16.8458H2.10688C1.63683 16.8458 1.24242 16.4514 1.24242 15.9813V4.89985H4.20864C4.82998 4.89985 5.34328 4.38116 5.34328 3.76522V0.799H13.0101C13.4801 0.799 13.8745 1.18801 13.8745 1.66347V15.9867L13.88 15.9813Z" fill="currentColor"/>
<path fill-rule="evenodd" clip-rule="evenodd" d="M13.0208 1.48528H6.04022V3.75992C6.04022 4.75947 5.21356 5.58612 4.21401 5.58612H1.93936V15.9814C1.93936 16.0733 2.0204 16.1543 2.11225 16.1543H13.0208C13.1127 16.1543 13.1937 16.0733 13.1937 15.9814V1.66898C13.1937 1.56632 13.1127 1.48528 13.0208 1.48528ZM11.9997 14.2849H3.15502V13.4636H11.9997V14.2849ZM11.9997 12.6424H3.15502V11.8211H11.9997V12.6424ZM11.9997 10.9945H3.15502V10.1732H11.9997V10.9945ZM11.9997 9.35199H3.15502V8.53073H11.9997V9.35199ZM11.9997 7.7365H3.15502V6.91525H11.9997V7.7365Z" fill="currentColor"/>
</svg>
