<svg width="34" height="28" viewBox="0 0 34 28" fill="none" xmlns="http://www.w3.org/2000/svg">
<path d="M26.6724 0H1.6203C0.724525 0 0 0.724525 0 1.6203V19.0847C0 19.9804 0.724525 20.705 1.6203 20.705H17.1087C17.0593 20.3196 17.0362 19.9277 17.0362 19.5358C17.0362 18.2844 17.2799 17.0725 17.764 15.9297C18.2317 14.8264 18.9002 13.8351 19.7499 12.9855C20.5996 12.1358 21.5909 11.4673 22.6941 10.9996C23.8369 10.5155 25.0521 10.2718 26.3036 10.2718C26.9787 10.2718 27.6439 10.3442 28.2927 10.4859V1.6203C28.2927 0.724525 27.5682 0 26.6724 0ZM27.0314 9.26734H1.25804V3.92232H27.0314V9.27063V9.26734Z" fill="currentColor"/>
<path d="M26.3036 11.8394C22.0519 11.8394 18.6071 15.2842 18.6071 19.5358C18.6071 23.7875 22.0519 27.2323 26.3036 27.2323C30.5552 27.2323 34 23.7875 34 19.5358C34 15.2842 30.5552 11.8394 26.3036 11.8394ZM30.2028 20.0265C30.2028 20.1649 30.0909 20.2801 29.9492 20.2801H27.2981C27.1598 20.2801 27.0446 20.3921 27.0446 20.5337V23.1848C27.0446 23.3231 26.9326 23.4384 26.791 23.4384H25.8129C25.6745 23.4384 25.5593 23.3264 25.5593 23.1848V20.5337C25.5593 20.3954 25.4473 20.2801 25.3057 20.2801H22.6546C22.5163 20.2801 22.401 20.1682 22.401 20.0265V19.0484C22.401 18.9101 22.513 18.7948 22.6546 18.7948H25.3057C25.444 18.7948 25.5593 18.6829 25.5593 18.5413V15.8902C25.5593 15.7518 25.6713 15.6366 25.8129 15.6366H26.791C26.9293 15.6366 27.0446 15.7485 27.0446 15.8902V18.5413C27.0446 18.6796 27.1565 18.7948 27.2981 18.7948H29.9492C30.0876 18.7948 30.2028 18.9068 30.2028 19.0484V20.0265Z" fill="currentColor"/>
</svg>
