<svg width="22" height="22" viewBox="0 0 22 22" fill="none" xmlns="http://www.w3.org/2000/svg">
<path d="M11 0C4.92268 0 0 4.9227 0 11C0 17.0773 4.92268 22 11 22C17.0773 22 22 17.0773 22 11C22 4.9227 17.0773 0 11 0ZM12.2842 17.5842V19.212H9.86789V17.5842C7.53046 17.2181 6.16743 15.7931 6.00973 13.8274H8.89349C9.11879 14.8807 9.92985 15.5341 11.1464 15.5341C12.6503 15.5341 13.1178 14.8244 13.1178 14.0077C13.1178 13.0107 12.5883 12.5264 10.7184 11.9744C7.28264 11 6.28572 9.72147 6.28572 7.829C6.28572 5.77882 7.78955 4.47772 9.72145 4.11162V2.79366H12.1208V4.09474C14.661 4.47774 15.5566 6.04352 15.6974 7.63184H12.8136C12.6728 7.06297 12.4081 6.15053 10.8648 6.15053C9.56375 6.15053 9.18075 6.92216 9.18075 7.55298C9.18075 8.426 9.67076 8.83155 11.8449 9.43984C14.8751 10.296 16.0128 11.5126 16.0128 13.6641C16.0128 15.9621 14.5315 17.2406 12.2954 17.5842H12.2842Z" fill="#C3C3C7"/>
</svg>
