<svg width="21" height="15" viewBox="0 0 21 15" fill="none" xmlns="http://www.w3.org/2000/svg">
<path d="M14.248 7.21315L20.9477 1.12402C20.9531 1.15644 20.9531 1.19426 20.9531 1.23748V13.1618L14.248 7.21315Z" fill="currentColor"/>
<path d="M20.9531 1.23748V13.1618L14.248 7.21315L20.9477 1.12402C20.9531 1.15644 20.9531 1.19426 20.9531 1.23748Z" fill="currentColor"/>
<path d="M13.7398 7.6665L20.8015 13.9285C20.5962 14.3175 20.1855 14.5823 19.7155 14.5823H1.23196C0.761902 14.5823 0.35668 14.3175 0.151367 13.9285L7.08875 7.76913L8.06668 8.7471C8.68262 9.36303 9.49307 9.6818 10.3035 9.6818C11.0653 9.6818 11.8272 9.40623 12.4323 8.85513L13.7398 7.6665Z" fill="currentColor"/>
<path d="M20.8015 13.9285C20.5962 14.3175 20.1855 14.5823 19.7155 14.5823H1.23196C0.761902 14.5823 0.35668 14.3175 0.151367 13.9285L7.08875 7.76913L8.06668 8.7471C8.68262 9.36303 9.49307 9.6818 10.3035 9.6818C11.0653 9.6818 11.8272 9.40623 12.4323 8.85513L13.7398 7.6665L20.8015 13.9285Z" fill="currentColor"/>
<path d="M6.60784 7.29385L0 13.1615V1.23712C0 1.06963 0.0324415 0.912938 0.0918741 0.772461L6.60784 7.29385Z" fill="currentColor"/>
<path d="M6.60784 7.29385L0 13.1615V1.23712C0 1.06963 0.0324415 0.912938 0.0918741 0.772461L6.60784 7.29385Z" fill="currentColor"/>
<path d="M0.507812 0.232323C0.707722 0.0864434 0.961676 0 1.23182 0H19.7153C20.1043 0 20.4501 0.172893 20.6717 0.453847L11.9837 8.35297C11.0004 9.24986 9.48753 9.21746 8.54201 8.27195L0.507812 0.232323Z" fill="currentColor"/>
<path d="M20.6717 0.453847L13.5452 6.9374C13.5452 6.9374 13.5073 6.96983 13.4911 6.98604H13.4857L11.9837 8.35297C11.0004 9.24986 9.48753 9.21746 8.54201 8.27195L0.507812 0.232323C0.707722 0.0864434 0.961676 0 1.23182 0H19.7153C20.1043 0 20.4501 0.172893 20.6717 0.453847Z" fill="currentColor"/>
</svg>
