<svg width="20" height="22" viewBox="0 0 20 22" fill="none" xmlns="http://www.w3.org/2000/svg">
<path d="M15.1636 15.0431C11.9411 13.8535 12.1369 14.4308 12.1369 12.2574C12.1369 10.8369 12.8496 11.6651 13.3164 8.97468C13.4921 7.9206 13.6377 8.62332 14.0192 6.9368C14.225 6.04837 13.8837 5.98312 13.9238 5.56149C13.964 5.13484 14.0041 4.75337 14.0794 3.89505C14.1748 2.81588 13.1759 0 9.61716 0C6.05841 0 5.04951 2.81588 5.14488 3.89505C5.23021 4.75337 5.27037 5.13986 5.31053 5.56149C5.35068 5.98814 5.00935 6.05841 5.20511 6.9368C5.59662 8.62332 5.73215 7.9206 5.91787 8.98973C6.37463 11.6701 7.09743 10.8519 7.09743 12.2624C7.09743 14.4458 7.29318 13.8686 4.06069 15.0481C1.18959 16.0922 0.25097 16.7999 0 17.3269C0.672599 18.1853 1.46065 18.9532 2.33904 19.5957C4.36687 21.1065 6.88661 22 9.60713 22C12.3276 22 14.8373 21.1116 16.8752 19.5957C17.7436 18.9432 18.5316 18.1752 19.2042 17.3169C18.9432 16.7899 17.9945 16.0972 15.1435 15.0481L15.1636 15.0431Z" fill="currentColor"/>
</svg>
