<svg width="33" height="32" viewBox="0 0 33 32" fill="none" xmlns="http://www.w3.org/2000/svg">
<path d="M16.6767 22.1948C19.9964 22.1948 22.6875 19.5037 22.6875 16.1841C22.6875 12.8644 19.9964 10.1733 16.6767 10.1733C13.3571 10.1733 10.666 12.8644 10.666 16.1841C10.666 19.5037 13.3571 22.1948 16.6767 22.1948Z" fill="currentColor"/>
<path d="M16.6768 5.54379C18.1062 5.54379 19.2649 4.38508 19.2649 2.95573C19.2649 1.52639 18.1062 0.367676 16.6768 0.367676C15.2475 0.367676 14.0888 1.52639 14.0888 2.95573C14.0888 4.38508 15.2475 5.54379 16.6768 5.54379Z" fill="currentColor"/>
<path d="M16.6768 32C18.1062 32 19.2649 30.8412 19.2649 29.4119C19.2649 27.9825 18.1062 26.8239 16.6768 26.8239C15.2475 26.8239 14.0888 27.9825 14.0888 29.4119C14.0888 30.8412 15.2475 32 16.6768 32Z" fill="currentColor"/>
<path d="M30.0244 18.7722C31.4538 18.7722 32.6125 17.6135 32.6125 16.1842C32.6125 14.7548 31.4538 13.5961 30.0244 13.5961C28.5951 13.5961 27.4364 14.7548 27.4364 16.1842C27.4364 17.6135 28.5951 18.7722 30.0244 18.7722Z" fill="currentColor"/>
<path d="M3.32927 18.7722C4.75861 18.7722 5.91732 17.6135 5.91732 16.1842C5.91732 14.7548 4.75861 13.5961 3.32927 13.5961C1.89992 13.5961 0.741211 14.7548 0.741211 16.1842C0.741211 17.6135 1.89992 18.7722 3.32927 18.7722Z" fill="currentColor"/>
<path d="M12.335 2.95615C12.335 2.48623 12.4052 2.03035 12.5454 1.60953C7.51662 3.0263 3.54686 7.00305 2.10906 12.0319C2.49481 11.9126 2.89457 11.8565 3.31539 11.8565C3.91156 11.8565 4.47267 11.9758 4.9987 12.2072H5.01269C6.21905 8.61621 9.05963 5.76161 12.6296 4.52019C12.4402 4.05027 12.335 3.50322 12.335 2.96317V2.95615ZM28.3403 12.2002C28.8453 11.9758 29.4274 11.8495 30.0236 11.8495C30.4444 11.8495 30.8652 11.9197 31.251 12.0249C29.8132 6.99603 25.8364 3.02628 20.7935 1.58847C20.9338 2.00929 21.004 2.47922 21.004 2.95615C21.004 3.4962 20.8987 4.04325 20.7094 4.51317C24.3004 5.75459 27.1339 8.60919 28.3473 12.2002H28.3403ZM28.3403 20.1678C27.1339 23.7588 24.2794 26.6133 20.6883 27.8407C20.8987 28.3317 21.004 28.8577 21.004 29.4188C21.004 29.8887 20.9338 30.3447 20.7935 30.7655C25.8223 29.3277 29.7921 25.3719 31.251 20.3431C30.8652 20.4483 30.4444 20.5184 30.0236 20.5184C29.4274 20.5184 28.8523 20.3992 28.3403 20.1678ZM12.6506 27.8407C9.05961 26.6133 6.22606 23.7588 5.01269 20.1678C4.48667 20.3922 3.91156 20.5184 3.31539 20.5184C2.89457 20.5184 2.49481 20.4693 2.10906 20.3431C3.54686 25.3719 7.52363 29.3277 12.5454 30.7444C12.4052 30.3236 12.335 29.8887 12.335 29.4118C12.335 28.8507 12.4402 28.3247 12.6506 27.8337V27.8407Z" fill="currentColor"/>
</svg>
