<svg width="27" height="19" viewBox="0 0 27 19" fill="none" xmlns="http://www.w3.org/2000/svg">
<path d="M25.3397 3.05618C24.1935 3.01431 23.1363 2.95149 22.9374 2.88346L16.1178 0.282278C14.7466 -0.246335 13.1869 -0.0212899 12.0302 0.86322L7.74374 4.12386C7.66524 4.20237 7.5972 4.29659 7.54486 4.40127C7.37214 4.8252 7.56056 5.29623 7.96879 5.46895C8.74863 5.81438 9.61744 5.75682 10.3554 5.34858L13.9981 3.31787C14.2755 3.16085 14.6157 3.22364 14.8146 3.4644L22.77 13.1365C22.838 13.215 22.9688 13.2307 23.0473 13.1626L23.3928 12.8852C23.5655 12.7544 23.7644 12.6759 23.9737 12.6759H26.5854C26.8628 11.6448 26.9936 10.5667 26.9936 9.44141C26.9936 7.13331 26.4022 4.95604 25.345 3.05618H25.3397ZM21.7284 13.754C21.6865 13.6755 21.6342 13.6075 21.5819 13.5447L20.7759 12.5817L14.2965 4.69436C14.2284 4.61585 14.1133 4.60014 14.0191 4.65248L10.9207 6.37962C9.93147 6.9344 8.7434 7.02863 7.6757 6.63087C7.08428 6.42151 6.61849 5.9714 6.40913 5.37998C6.23642 4.77286 6.31491 4.13958 6.61847 3.5848C6.69697 3.43825 6.64465 3.27076 6.4981 3.18702C6.44576 3.16086 6.40391 3.14514 6.35157 3.14514H2.19594C1.18059 5.01884 0.599609 7.15424 0.599609 9.43617C0.599609 10.5562 0.730469 11.6396 1.00786 12.6706H3.41015L4.30514 11.5768C5.11114 10.5981 6.54522 10.4672 7.52393 11.2732C7.89553 11.5611 8.14152 11.9589 8.2776 12.4194C9.04173 12.6288 9.64885 13.2254 9.8739 13.9896C10.4287 14.1623 10.905 14.5286 11.2085 15.0311C11.6953 15.1096 12.1454 15.3347 12.4856 15.6906C13.2131 16.4547 13.3439 17.6166 12.8153 18.5273L12.6949 18.7523V18.768C13.2759 19.1763 14.0923 19.0297 14.5163 18.454C14.7152 18.1661 14.7937 17.7945 14.7256 17.4491C14.7099 17.4334 14.7099 17.4229 14.7413 17.4072C14.7413 17.4072 14.7675 17.4072 14.7675 17.4229L14.8722 17.5171C15.3223 17.9672 16.0341 18.0458 16.5731 17.6899C16.9971 17.3863 17.2064 16.8734 17.1018 16.3552C17.1018 16.3395 17.1017 16.3291 17.1174 16.3291C17.1331 16.3134 17.1436 16.3291 17.1593 16.3291L17.2535 16.4337C17.7141 16.8838 18.4154 16.9467 18.9545 16.6065C19.3889 16.3029 19.6035 15.79 19.4936 15.2718C19.4936 15.2561 19.4936 15.23 19.5093 15.23C19.525 15.2143 19.5355 15.23 19.5512 15.2457L19.6559 15.3503C20.0903 15.7743 20.7497 15.8528 21.2783 15.5492C21.8959 15.1776 22.0948 14.3769 21.7284 13.754ZM11.622 16.5018C11.2922 16.1982 10.8055 16.1197 10.4078 16.3029C10.3816 16.3186 10.3659 16.3029 10.3554 16.2872V16.2715C10.3816 15.6539 9.92099 15.1358 9.29816 15.0991C9.15162 15.0991 8.99461 15.1148 8.84807 15.1776C8.69105 15.2038 8.71722 15.0573 8.71722 15.0573C8.95274 14.492 8.67535 13.843 8.1258 13.6075C7.81177 13.4871 7.45066 13.5028 7.1628 13.6755C7.04242 13.6912 7.05812 13.5708 7.05812 13.5708C7.36168 13.0422 7.17849 12.3828 6.66035 12.0792C6.1736 11.8018 5.55079 11.9222 5.19489 12.3671L4.32606 13.4348C3.944 13.8954 4.00683 14.5967 4.4831 14.9787L4.49879 14.9944L4.62963 15.0991C4.98553 15.3765 5.47227 15.4132 5.87004 15.1933C5.89621 15.1672 5.92238 15.1829 5.93808 15.209C5.95378 15.2247 5.9538 15.2352 5.9538 15.2509C5.87529 15.6591 6.02184 16.0831 6.35157 16.3343L6.45622 16.4128C6.80165 16.6902 7.26224 16.7268 7.65478 16.5332C7.68095 16.5175 7.70712 16.5332 7.72282 16.5593C7.73852 16.575 7.73851 16.5855 7.73851 16.6012C7.68617 16.9833 7.8432 17.3549 8.14676 17.6061L8.22524 17.6584C8.57067 17.9201 9.04174 17.9725 9.4238 17.7631C9.46567 17.7474 9.49184 17.7631 9.51801 17.7893C9.51801 17.7893 9.52322 17.798 9.53369 17.8155C9.57556 18.0929 9.71689 18.3441 9.94194 18.5168L9.99427 18.5587C10.481 18.9407 11.1823 18.8465 11.5644 18.3598C11.6063 18.3179 11.6324 18.2813 11.6586 18.2289L11.8313 17.9411C12.1087 17.4805 12.0302 16.8838 11.6324 16.5175L11.622 16.5018Z" fill="currentColor"/>
</svg>
