<svg width="31" height="31" viewBox="0 0 31 31" fill="none" xmlns="http://www.w3.org/2000/svg">
<path d="M2.67288 6.93091L0.909457 5.74372C0.791433 5.66736 0.638698 5.66041 0.520674 5.74372C0.40265 5.82704 0.340165 5.96589 0.367936 6.10474L1.37462 11.27C1.40933 11.4575 1.59678 11.5824 1.78423 11.5477L6.95646 10.5411C7.09531 10.5133 7.20639 10.4022 7.23416 10.2634C7.26193 10.1245 7.20639 9.9787 7.08837 9.90234L5.31801 8.70821" fill="currentColor"/>
<path d="M29.3047 10.6381C26.6734 2.54998 17.9466 -1.87939 9.85154 0.765733C6.38024 1.90432 3.58238 4.14678 1.7426 7.00018L5.52631 9.38843C6.81069 7.40285 8.79626 5.81994 11.247 5.0146C16.9816 3.1401 23.1813 6.28509 25.0558 12.0405C26.9303 17.7751 23.8061 23.9748 18.0507 25.8493C12.7744 27.5572 7.15087 25.0926 4.79733 20.2397L0 20.2952C2.66595 28.3278 11.3581 32.7433 19.4323 30.1121C27.5204 27.4669 31.9498 18.7332 29.3047 10.645V10.6381Z" fill="currentColor"/>
<path d="M11.8507 19.5805V11.2911C11.8507 10.9162 12.2673 10.6871 12.5867 10.8884L19.0641 15.0331C19.3557 15.2206 19.3557 15.651 19.0641 15.8385L12.5867 19.9832C12.2673 20.1845 11.8507 19.9554 11.8507 19.5805Z" fill="currentColor"/>
</svg>
