<svg width="24" height="24" viewBox="0 0 24 24" fill="none" xmlns="http://www.w3.org/2000/svg">
<path d="M11.9999 23.3892C18.2901 23.3892 23.3893 18.29 23.3893 11.9998C23.3893 5.70958 18.2901 0.610352 11.9999 0.610352C5.70971 0.610352 0.610474 5.70958 0.610474 11.9998C0.610474 18.29 5.70971 23.3892 11.9999 23.3892Z" fill="currentColor"/>
<path d="M12.2918 4.73291H11.7137C10.7357 4.73291 9.94153 5.52714 9.94153 6.50508V7.60728L10.2441 12.7023C10.2981 13.637 11.0761 14.3664 12.0108 14.3664C12.9456 14.3664 13.7236 13.6316 13.7776 12.6969L14.0586 7.68833V6.50508C14.0586 5.52714 13.2643 4.73291 12.2918 4.73291Z" fill="#3E3F4A"/>
<path d="M11.9676 19.2668C12.9344 19.2668 13.7182 18.4831 13.7182 17.5163C13.7182 16.5494 12.9344 15.7657 11.9676 15.7657C11.0008 15.7657 10.217 16.5494 10.217 17.5163C10.217 18.4831 11.0008 19.2668 11.9676 19.2668Z" fill="#3E3F4A"/>
</svg>
