<svg width="36" height="34" viewBox="0 0 36 34" fill="none" xmlns="http://www.w3.org/2000/svg">
<path d="M26.7288 0.41748H9.37062C4.5751 0.41748 0.673828 4.3199 0.673828 9.11683V25.0018C0.673828 29.7987 4.5751 33.7011 9.37062 33.7011H26.7288C31.5243 33.7011 35.4256 29.7987 35.4256 25.0018V9.11683C35.4256 4.3199 31.5243 0.41748 26.7288 0.41748ZM3.74178 9.11683C3.74178 6.01259 6.26729 3.48633 9.37062 3.48633H26.7288C29.8322 3.48633 32.3577 6.01259 32.3577 9.11683V25.0018C32.3577 28.106 29.8322 30.6323 26.7288 30.6323H9.37062C6.26729 30.6323 3.74178 28.106 3.74178 25.0018V9.11683Z" fill="currentColor"/>
<path d="M18.0495 25.1491C22.509 25.1491 26.139 21.5199 26.139 17.0572C26.139 12.5945 22.5109 8.96533 18.0495 8.96533C13.5881 8.96533 9.96002 12.5945 9.96002 17.0572C9.96002 21.5199 13.5881 25.1491 18.0495 25.1491ZM18.0495 12.0362C20.8187 12.0362 23.0711 14.2891 23.0711 17.0592C23.0711 19.8292 20.8187 22.0822 18.0495 22.0822C15.2803 22.0822 13.028 19.8292 13.028 17.0592C13.028 14.2891 15.2803 12.0362 18.0495 12.0362Z" fill="currentColor"/>
<path d="M26.888 10.2726C28.0888 10.2726 29.0676 9.29552 29.0676 8.09236C29.0676 6.88919 28.0908 5.91211 26.888 5.91211C25.6852 5.91211 24.7084 6.88919 24.7084 8.09236C24.7084 9.29552 25.6852 10.2726 26.888 10.2726Z" fill="currentColor"/>
</svg>
