<svg width="21" height="18" viewBox="0 0 21 18" fill="none" xmlns="http://www.w3.org/2000/svg">
<path d="M20.0397 17.3489C20.4071 17.3489 20.7043 17.0517 20.7043 16.6843V11.519H0.475586V16.6843C0.475586 17.0517 0.772738 17.3489 1.14014 17.3489H20.0397Z" fill="currentColor"/>
<path d="M15.0366 2.94462V1.37775C15.0366 0.615931 14.4206 0 13.6588 0H7.52643C6.76461 0 6.14868 0.615931 6.14868 1.37775V2.94462H1.14554C0.778135 2.94462 0.480982 3.24177 0.480982 3.60917V9.62806H20.7097V3.60917C20.7097 3.24177 20.4125 2.94462 20.0451 2.94462H15.0366ZM13.8047 3.20395H7.37516V1.6371C7.37516 1.55065 7.43458 1.49122 7.52102 1.49122H13.6534C13.729 1.49122 13.7993 1.55065 13.7993 1.6371V3.20395H13.8047Z" fill="currentColor"/>
</svg>
