<svg width="19" height="23" viewBox="0 0 19 23" fill="none" xmlns="http://www.w3.org/2000/svg">
<path d="M0.641277 21.6598C0.641277 21.9191 0.781772 22.0704 0.997891 22.119C1.47875 21.9353 1.94341 21.784 2.38646 21.5895C2.53774 21.5247 2.67279 21.3734 2.77004 21.2275C3.62911 20.0335 5.13656 17.8885 5.55799 17.2834C5.63363 17.1807 5.70386 17.0781 5.7795 16.97C5.79571 16.9862 5.81193 16.997 5.83355 17.0132C5.94701 17.0024 6.06587 16.997 6.23877 16.9808C7.55709 15.1438 7.13023 15.6517 8.47557 13.7768C8.57282 13.7822 8.67548 13.7931 8.81055 13.8039C9.43729 12.9124 10.064 12.0101 10.7016 11.1024C10.9825 11.07 11.2581 11.0267 11.5283 11.0159C12.4846 10.9673 13.4247 10.8052 14.3432 10.5405C14.8619 10.3892 15.3589 10.1677 15.8074 9.8597C16.0991 9.65979 16.3261 9.37884 16.4666 9.05466C16.7367 8.43332 16.9744 7.80118 17.223 7.16903C17.2986 6.98533 17.3526 6.79082 17.4067 6.62333C17.92 6.30996 18.9897 5.89393 18.9897 5.87772C18.9465 5.72644 17.6282 2.11185 17.4877 1.85792C16.9312 2.06323 16.3963 2.25774 15.8452 2.45765C15.4562 2.04162 14.9916 1.73365 14.4999 1.4581C13.7759 1.04748 12.9925 0.782733 12.182 0.599033C11.9443 0.545003 11.7012 0.523396 11.4634 0.469367C11.0906 0.377516 10.7664 0.46936 10.4314 0.647657C9.47511 1.14473 8.59444 1.74446 7.87585 2.56031C7.49224 3.00335 7.14105 3.4734 7.03299 4.06772C6.98436 4.33787 6.93575 4.61343 6.94656 4.88898C6.97357 5.58597 6.98435 6.28835 7.087 6.97993C7.17345 7.55264 7.37877 8.10374 7.53546 8.66565C7.56247 8.7683 7.6057 8.86557 7.64353 8.97903C7.02218 9.88673 6.40625 10.7944 5.78491 11.7075C5.86055 11.8156 5.91999 11.902 6.00104 12.0209C4.66651 13.8903 5.09872 13.3932 3.75339 15.2843C3.81822 15.3977 3.85606 15.4734 3.90469 15.5598C3.85066 15.6517 3.80203 15.7597 3.7372 15.8516C3.40761 16.3054 1.21941 19.3149 0.754751 19.9686C0.700721 20.0443 0.652093 20.1361 0.652093 20.228C0.635884 20.7034 0.635896 21.1789 0.630493 21.6598H0.641277ZM8.00011 4.14337C8.05414 4.0191 8.1298 3.89483 8.22165 3.79758C8.56744 3.41397 8.9024 3.00875 9.28601 2.66836C9.8101 2.2037 10.4206 1.85252 11.0906 1.62559C11.3446 1.53914 11.5931 1.54455 11.8038 1.78228C11.8578 2.07404 11.7768 2.30096 11.512 2.48466C11.1284 2.74941 10.7502 3.02497 10.3936 3.32213C9.89657 3.73816 9.42111 4.17039 8.94025 4.60263C8.78897 4.7377 8.61605 4.80254 8.41614 4.79173C8.08116 4.78093 7.85963 4.44594 8.00011 4.14337Z" fill="currentColor"/>
</svg>
