<svg width="26" height="26" viewBox="0 0 26 26" fill="none" xmlns="http://www.w3.org/2000/svg">
<path d="M5.94544 25.7524H0.63685V8.71584H5.94544V25.7524ZM3.29115 6.39334C1.58893 6.39334 0.204102 5.02291 0.204102 3.3207C0.204102 1.61848 1.57451 0.248047 3.29115 0.248047C5.00779 0.248047 6.3638 1.61848 6.3638 3.3207C6.3638 5.02291 4.99336 6.39334 3.29115 6.39334ZM25.7806 25.7524H20.4864V17.4722C20.4864 15.4959 20.4431 12.957 17.7311 12.957C15.0191 12.957 14.5575 15.1064 14.5575 17.3279V25.7524H9.26334V8.71584H14.3556V11.0384H14.4132C15.1201 9.6968 16.8512 8.28309 19.4189 8.28309C24.7708 8.28309 25.7662 11.8029 25.7662 16.4047V25.7524H25.7806Z" fill="currentColor"/>
</svg>
