<svg width="32" height="31" viewBox="0 0 32 31" fill="none" xmlns="http://www.w3.org/2000/svg">
<path d="M25.4796 20.2859L31.1564 15.5397C31.448 15.2978 31.448 14.8573 31.1564 14.6153L25.4796 9.86915C25.0888 9.54034 24.487 9.81952 24.487 10.3345V12.63H21.1491C16.8869 12.63 13.4374 16.0857 13.4374 20.3417V30.9756H18.3387V20.3417C18.3387 18.7907 19.5981 17.5312 21.1491 17.5312H24.487V19.8268C24.487 20.3417 25.0826 20.6209 25.4796 20.2921V20.2859Z" fill="currentColor"/>
<path d="M13.7853 13.3249C12.6376 14.5161 11.7876 15.9865 11.3533 17.6181C11.1238 17.5561 10.8756 17.5251 10.6274 17.5251H7.29581V19.833C7.29581 20.3418 6.694 20.6086 6.30314 20.2797L0.620185 15.5398C0.328591 15.3102 0.328591 14.8573 0.620185 14.6092L6.30314 9.8692C6.6878 9.54658 7.29581 9.82577 7.29581 10.3345V12.63H10.6274C11.6325 12.63 12.5817 12.8286 13.4627 13.1698C13.5682 13.2132 13.6799 13.2629 13.7853 13.3249Z" fill="currentColor"/>
<path d="M20.5847 6.81679H18.3202V10.5641C17.4392 10.8122 16.614 11.1845 15.8571 11.6498L15.0196 11.1721C14.821 11.0666 14.6163 10.9735 14.3557 10.8619C14.0641 10.7564 13.7663 10.6447 13.4561 10.5703V6.823H11.1916C10.6829 6.823 10.3851 6.23359 10.7263 5.83032L15.4228 0.209389C15.6524 -0.0697964 16.1053 -0.0697964 16.3534 0.209389L21.05 5.83032C21.3726 6.23359 21.0934 6.823 20.5847 6.823V6.81679Z" fill="currentColor"/>
</svg>
