<svg width="26" height="26" viewBox="0 0 26 26" fill="none" xmlns="http://www.w3.org/2000/svg">
<path d="M13.6369 17.0134V18.0454H12.1024V17.0134C10.622 16.7811 9.75753 15.8788 9.64948 14.6253H11.4811C11.6215 15.2953 12.1402 15.7059 12.9129 15.7059C13.8692 15.7059 14.1609 15.2575 14.1609 14.7388C14.1609 14.1066 13.826 13.7987 12.6373 13.4475C10.4599 12.8261 9.82777 12.0157 9.82777 10.8162C9.82777 9.51411 10.7841 8.68746 12.0052 8.45514V7.61768H13.5288V8.44433C15.1389 8.68746 15.7062 9.68161 15.798 10.6866H13.9664C13.8746 10.3246 13.7071 9.74644 12.7292 9.74644C11.9025 9.74644 11.6594 10.2381 11.6594 10.6379C11.6594 11.1944 11.9673 11.4484 13.3505 11.8374C15.274 12.3777 15.9925 13.1503 15.9925 14.5227C15.9925 15.9815 15.0524 16.7919 13.6315 17.0134H13.6369Z" fill="currentColor"/>
<path d="M12.8318 2.20956V-0.000244141C5.7323 -0.000244141 -0.000244141 5.74851 -0.000244141 12.8318C-0.000244141 13.5234 0.0483977 14.2041 0.167263 14.8741L7.52068 7.52068H3.64675C5.53239 4.23568 9.03891 2.22037 12.8372 2.20956H12.8318ZM25.4963 10.7841L18.1429 18.1483H22.0168C20.115 21.4333 16.6139 23.4486 12.8264 23.4594V25.6692C19.9097 25.6692 25.6584 19.9205 25.6584 12.8372C25.6584 12.1294 25.6044 11.4486 25.4909 10.7841H25.4963Z" fill="currentColor"/>
</svg>
