<svg width="26" height="26" viewBox="0 0 26 26" fill="none" xmlns="http://www.w3.org/2000/svg">
<path d="M19.7326 8.22219V18.7183C19.7326 19.2816 19.2655 19.735 18.7022 19.735H8.21983C7.64969 19.735 7.18945 19.2816 7.18945 18.7183V15.1738H12.4375C13.935 15.1738 15.1577 13.9511 15.1577 12.4536V7.20557H18.7022C19.2655 7.20557 19.7326 7.65892 19.7326 8.22219Z" fill="currentColor"/>
<path d="M13.4611 0.934082H0.924805V13.4703H13.4611V0.934082Z" fill="#FFFF00"/>
<path d="M25.9971 14.487V24.9831C25.9971 25.5464 25.5437 25.9997 24.9667 25.9997H14.4844C13.9142 25.9997 13.454 25.5464 13.454 24.9831V21.4386H18.702C20.1995 21.4386 21.4291 20.2159 21.4291 18.7184V13.4703H24.9667C25.5368 13.4703 25.9971 13.9237 25.9971 14.487Z" fill="#B3B3B3"/>
</svg>
