<svg width="32" height="20" viewBox="0 0 32 20" fill="none" xmlns="http://www.w3.org/2000/svg">
<path d="M20.2796 17.4378H11.9268V2.42732H20.2796V17.4378Z" fill="#FF5F00"/>
<path d="M12.4572 9.93269C12.4572 6.88761 13.8832 4.17587 16.1033 2.4281C14.4224 1.10248 12.3439 0.384323 10.2049 0.386897C4.93199 0.386897 0.659103 4.66108 0.659103 9.93269C0.659103 15.2043 4.93199 19.4785 10.2036 19.4785C12.3439 19.4811 14.4224 18.7629 16.102 17.4373C13.8832 15.6895 12.4572 12.9778 12.4572 9.93269Z" fill="#EB001B"/>
<path d="M31.5477 9.93252C31.5477 15.2041 27.2748 19.4783 22.0032 19.4783C19.8629 19.4809 17.7844 18.7627 16.1035 17.4371C18.3236 15.6893 19.7496 12.9776 19.7496 9.93252C19.7496 6.88744 18.3234 4.17587 16.1033 2.4281C17.7841 1.10248 19.8629 0.384152 22.0032 0.386726C27.2748 0.386726 31.5477 4.6609 31.5477 9.93252Z" fill="#F79E1B"/>
</svg>
