<svg width="22" height="20" viewBox="0 0 22 20" fill="none" xmlns="http://www.w3.org/2000/svg">
<path d="M19.1557 0.165104L6.79269 0.145516C6.54296 0.0475724 6.28008 0 6.01458 0C4.74489 0 3.71705 1.09417 3.71705 2.44298V4.32349H0.341737C0.152467 4.32349 0 4.4858 0 4.68728V12.9537C0 13.5721 0.23133 14.1654 0.641415 14.6019C1.0515 15.0385 1.60879 15.2847 2.18975 15.2847H7.62337V19.6418C7.62337 19.7677 7.68646 19.8881 7.78635 19.9524C7.8915 20.0112 8.01768 20.0112 8.1202 19.9524L9.67642 19.1129L11.2353 19.9524C11.3325 20.0056 11.4482 20.0056 11.5455 19.9524L13.1017 19.1129L14.6605 19.9524C14.7578 20.0056 14.8708 20.0056 14.9707 19.9524L16.5269 19.1129L18.0858 19.9524C18.1831 20.0028 18.2961 20.0028 18.396 19.9524L19.9522 19.1129L21.5111 19.9524C21.6162 20.0112 21.7424 20.0112 21.8449 19.9524C21.9448 19.8853 22.0079 19.7677 22.0053 19.6418V3.19575C22.0053 1.52512 20.7329 0.170701 19.1636 0.167903L19.1557 0.165104ZM7.62337 14.5656H3.79066C4.18234 14.1318 4.40053 13.5553 4.40053 12.9537V2.44298C4.43733 1.52232 5.14709 0.797537 6.01195 0.797537C6.87681 0.797537 7.58657 1.52232 7.62337 2.44298V14.5656ZM15.7856 16.3397H9.79997C9.61071 16.3397 9.45824 16.1774 9.45824 15.9759C9.45824 15.7744 9.61071 15.6121 9.79997 15.6121H15.7856C15.9749 15.6121 16.1274 15.7744 16.1274 15.9759C16.1274 16.1774 15.9723 16.3397 15.7856 16.3397ZM15.7856 14.5907H9.79997C9.61071 14.5907 9.45824 14.4284 9.45824 14.2269C9.45824 14.0255 9.61071 13.8632 9.79997 13.8632H15.7856C15.9749 13.8632 16.1274 14.0255 16.1274 14.2269C16.1274 14.4284 15.9723 14.5907 15.7856 14.5907ZM15.7856 8.00895H9.79997C9.61071 8.00895 9.45824 7.84665 9.45824 7.64516C9.45824 7.44368 9.61071 7.28138 9.79997 7.28138H15.7856C15.9749 7.28138 16.1274 7.44648 16.1274 7.64516C16.1274 7.84385 15.9723 8.00895 15.7856 8.00895ZM15.7856 6.35232H9.79997C9.61071 6.35232 9.45824 6.18721 9.45824 5.98853C9.45824 5.78984 9.61071 5.62474 9.79997 5.62474H15.7856C15.9749 5.62474 16.1274 5.78704 16.1274 5.98853C16.1274 6.19001 15.9723 6.35232 15.7856 6.35232ZM15.7856 4.69288H9.79997C9.61071 4.69288 9.45824 4.52777 9.45824 4.32909C9.45824 4.1304 9.61071 3.9653 9.79997 3.9653H15.7856C15.9749 3.9653 16.1274 4.12761 16.1274 4.32909C16.1274 4.53057 15.9723 4.69288 15.7856 4.69288ZM19.5973 16.3537H17.4286C17.2393 16.3537 17.0869 16.1886 17.0869 15.9899C17.0869 15.7912 17.2393 15.6261 17.4286 15.6261H19.5973C19.7866 15.6261 19.9391 15.7912 19.9391 15.9899C19.9391 16.1886 19.784 16.3537 19.5973 16.3537ZM19.5973 14.6047H17.4286C17.2393 14.6047 17.0869 14.4396 17.0869 14.2409C17.0869 14.0423 17.2393 13.8771 17.4286 13.8771H19.5973C19.7866 13.8771 19.9391 14.0423 19.9391 14.2409C19.9391 14.4396 19.784 14.6047 19.5973 14.6047ZM19.5973 8.02295H17.4286C17.2393 8.02295 17.0869 7.85784 17.0869 7.65636C17.0869 7.45488 17.2393 7.29257 17.4286 7.29257H19.5973C19.7866 7.29257 19.9391 7.45488 19.9391 7.65636C19.9391 7.85784 19.784 8.02015 19.5973 8.02015V8.02295ZM19.5973 6.36631H17.4286C17.2393 6.36631 17.0869 6.2012 17.0869 5.99972C17.0869 5.79824 17.2393 5.63593 17.4286 5.63593H19.5973C19.7866 5.63593 19.9391 5.79824 19.9391 5.99972C19.9391 6.2012 19.784 6.36351 19.5973 6.36351V6.36631ZM19.5973 4.70687H17.4286C17.2393 4.70687 17.0869 4.54177 17.0869 4.34028C17.0869 4.1388 17.2393 3.97649 17.4286 3.97649H19.5973C19.7866 3.97649 19.9391 4.1416 19.9391 4.34028C19.9391 4.53897 19.784 4.70407 19.5973 4.70407V4.70687Z" fill="currentColor"/>
</svg>
