<svg width="24" height="24" viewBox="0 0 24 24" fill="none" xmlns="http://www.w3.org/2000/svg">
<path d="M11.9999 0.243164C5.50558 0.243164 0.243088 5.50565 0.243088 12C0.243088 18.4944 5.50558 23.7568 11.9999 23.7568C18.4943 23.7568 23.7568 18.4944 23.7568 12C23.7568 5.50565 18.4943 0.243164 11.9999 0.243164ZM13.248 11.9244L12.3241 12.2918L13.2426 12.6646L12.9076 13.2157L12.2107 12.5943L12.3187 13.5669H11.7082L11.8162 12.5997L11.1247 13.2157L10.7897 12.6646L11.7028 12.281L10.7843 11.919L11.1247 11.3462L11.8108 11.973L11.7082 11.0059H12.3187L12.2107 11.973L12.9076 11.3571L13.248 11.9136V11.9244ZM11.357 21.3147C8.46099 21.1202 5.77573 19.5587 4.17646 17.1112C1.49119 12.9996 2.4583 7.47232 6.39166 4.53311H6.39707L5.43532 3.20398C5.31646 3.04189 5.44073 2.81497 5.64064 2.83118L9.31468 3.07972C9.46056 3.09052 9.56319 3.231 9.52537 3.37148L8.62308 6.93743C8.57446 7.13194 8.32051 7.18056 8.20705 7.01848L7.39123 5.89466C7.31018 5.7866 7.15349 5.76499 7.04543 5.84603C3.8955 8.36921 3.15529 12.9185 5.38131 16.3224C6.73205 18.3917 9.00668 19.7208 11.4488 19.8775C11.8432 19.9045 12.1458 20.2449 12.1188 20.6393C12.0918 21.0338 11.7514 21.3363 11.357 21.3093V21.3147ZM9.06613 12.6646L8.73115 13.2157L8.03415 12.5943L8.14221 13.5669H7.53167L7.63974 12.5997L6.94818 13.2157L6.6132 12.6646L7.5263 12.281L6.60779 11.919L6.94818 11.3462L7.63433 11.973L7.53167 11.0059H8.14221L8.03415 11.973L8.73115 11.3571L9.07154 11.9136L8.14221 12.281L9.06072 12.6538L9.06613 12.6646ZM17.4137 12.6646L17.0787 13.2157L16.3817 12.5943L16.4898 13.5669H15.8793L15.9873 12.5997L15.2957 13.2157L14.9607 12.6646L15.8738 12.281L14.9554 11.919L15.2957 11.3462L15.9819 11.973L15.8793 11.0059H16.4898L16.3817 11.973L17.0787 11.3571L17.4191 11.9136L16.4898 12.281L17.4083 12.6538L17.4137 12.6646ZM18.4457 20.8825C18.5591 21.0446 18.4348 21.2715 18.2349 21.2553L14.5663 20.9581C14.4205 20.9473 14.3178 20.8068 14.3556 20.6609L15.3065 17.1004C15.3606 16.9059 15.6091 16.8627 15.728 17.0248L16.6897 18.3863C16.6897 18.3863 16.7275 18.3377 16.7491 18.3215C20.0719 15.8361 20.8932 11.1571 18.6186 7.67764C17.2678 5.6083 14.9932 4.27917 12.551 4.12249C12.1566 4.09547 11.8541 3.75509 11.8811 3.36067C11.9081 2.96625 12.2485 2.66369 12.6429 2.6907C15.5443 2.87981 18.2241 4.44667 19.8234 6.89421C22.5087 11.0059 21.5416 16.5331 17.6082 19.4723C17.5704 19.5047 17.5326 19.5155 17.4947 19.5317L18.4511 20.8879L18.4457 20.8825Z" fill="currentColor"/>
</svg>
