<svg width="25" height="25" viewBox="0 0 25 25" fill="none" xmlns="http://www.w3.org/2000/svg">
<path d="M24.1117 6.22342V4.79895C24.1117 4.0569 23.5088 3.45398 22.7667 3.45398H10.026L9.04539 1.50609C8.8135 1.04893 8.35634 0.764038 7.83956 0.764038H2.10852C1.36647 0.764038 0.76355 1.36695 0.76355 2.10901V23.655C0.76355 24.3971 1.36647 25 2.10852 25H23.6546C24.3966 25 24.9995 24.3971 24.9995 23.655V7.49552C24.9995 6.91247 24.6219 6.41557 24.0985 6.23005L24.1117 6.22342ZM23.2106 6.1373H11.6492C11.4769 6.1373 11.3246 6.03792 11.245 5.88553L10.4699 4.34179H22.7601C23.0119 4.34179 23.2106 4.54056 23.2106 4.79233V6.1373Z" fill="currentColor"/>
</svg>
