<svg width="20" height="16" viewBox="0 0 20 16" fill="none" xmlns="http://www.w3.org/2000/svg">
<path d="M2.18646 12.6256C1.6961 12.6256 1.24075 12.4805 0.855463 12.2353V12.3854C0.855463 13.121 1.45092 13.7164 2.18646 13.7164H18.0781C18.8136 13.7164 19.4091 13.121 19.4091 12.3854V12.2353C19.0238 12.4755 18.5685 12.6256 18.0781 12.6256H2.18646Z" fill="currentColor"/>
<path d="M2.18663 14.912C1.69627 14.912 1.24092 14.7669 0.855632 14.5217V14.6719C0.855632 15.4074 1.45109 16.0028 2.18663 16.0028H18.0783C18.8138 16.0028 19.4093 15.4074 19.4093 14.6719V14.5217C19.024 14.7619 18.5686 14.912 18.0783 14.912H2.18663Z" fill="currentColor"/>
<path d="M18.0727 0.856689H2.18103C1.44549 0.856689 0.850037 1.45213 0.850037 2.18767V10.0985C0.850037 10.834 1.44549 11.4295 2.18103 11.4295H18.0727C18.8082 11.4295 19.4037 10.834 19.4037 10.0985V2.18767C19.4037 1.45213 18.8082 0.856689 18.0727 0.856689ZM10.6372 8.75249V9.39796H9.67652V8.75249C8.75084 8.60738 8.21045 8.04197 8.1454 7.26139H9.29123C9.3813 7.6817 9.70155 7.93689 10.1869 7.93689C10.7823 7.93689 10.9675 7.65668 10.9675 7.33144C10.9675 6.93615 10.7573 6.74601 10.0168 6.52585C8.65577 6.14057 8.26048 5.6302 8.26048 4.88465C8.26048 4.06905 8.85593 3.55367 9.62149 3.40857V2.88318H10.5722V3.39856C11.5779 3.55367 11.9332 4.17413 11.9882 4.79959H10.8424C10.7873 4.57442 10.6823 4.20915 10.0668 4.20915C9.55145 4.20915 9.39632 4.51437 9.39632 4.76456C9.39632 5.10981 9.59146 5.26993 10.4521 5.51511C11.653 5.85536 12.1033 6.33571 12.1033 7.19134C12.1033 8.10201 11.5179 8.60738 10.6272 8.74749L10.6372 8.75249Z" fill="currentColor"/>
</svg>
