<svg width="31" height="31" viewBox="0 0 31 31" fill="none" xmlns="http://www.w3.org/2000/svg">
<path d="M30.9211 15.4605C30.9211 16.3587 30.8468 17.2568 30.6919 18.1054H28.0656V21.6794C28.0656 21.9086 27.9294 22.1254 27.694 22.2183C27.4772 22.3113 27.2294 22.2493 27.0622 22.0821L20.8309 15.8817C20.6141 15.6525 20.6141 15.2809 20.8309 15.0455L27.0498 8.82658C27.217 8.65934 27.4648 8.6098 27.6816 8.69032C27.9108 8.78324 28.0532 9.00003 28.0532 9.22921V12.7846H30.6981C30.853 13.6518 30.9273 14.55 30.9273 15.4605H30.9211Z" fill="currentColor"/>
<path d="M10.0717 15.8756L3.84037 22.0759C3.68552 22.2432 3.42535 22.3051 3.20856 22.2122C2.99177 22.1193 2.85549 21.9025 2.85549 21.6733V18.0993H0.22918C0.0743267 17.2507 0 16.3526 0 15.4544C0 14.5563 0.0743267 13.6457 0.22918 12.7785H2.85549L2.86789 9.2231C2.86789 8.99392 3.00417 8.77712 3.22096 8.68421C3.43776 8.60988 3.69788 8.65326 3.85274 8.8205L10.0717 15.0394C10.3009 15.2686 10.3009 15.6402 10.0717 15.8756Z" fill="currentColor"/>
<path d="M22.0884 3.84657L15.8695 10.0779C15.6403 10.3071 15.2687 10.3071 15.0333 10.0779L8.81437 3.85897C8.64713 3.70412 8.5976 3.44396 8.69051 3.22716C8.76484 3.01037 8.98164 2.87411 9.2294 2.85553H12.7724V0.229218C13.6396 0.0743645 14.5378 0 15.4483 0C16.3588 0 17.2446 0.0743645 18.0932 0.229218V2.85553L21.6672 2.84313C21.8964 2.84313 22.1132 2.99797 22.2061 3.21476C22.299 3.43156 22.2371 3.67933 22.0822 3.84657H22.0884Z" fill="currentColor"/>
<path d="M22.2128 27.6938C22.1199 27.9106 21.9031 28.0654 21.674 28.0654L18.0999 28.0531V30.6979C17.2513 30.8528 16.3532 30.9271 15.455 30.9271C14.5569 30.9271 13.6464 30.8528 12.7792 30.6979V28.0531H9.23611C8.98834 28.0531 8.77155 27.8982 8.69722 27.6814C8.60431 27.4646 8.65387 27.2168 8.82111 27.0496L15.0401 20.8307C15.2692 20.6015 15.6409 20.6015 15.8762 20.8307L22.0951 27.062C22.25 27.2292 22.312 27.477 22.219 27.6938H22.2128Z" fill="currentColor"/>
<path d="M15.4485 17.7651C16.7245 17.7651 17.7589 16.7307 17.7589 15.4547C17.7589 14.1786 16.7245 13.1443 15.4485 13.1443C14.1725 13.1443 13.1381 14.1786 13.1381 15.4547C13.1381 16.7307 14.1725 17.7651 15.4485 17.7651Z" fill="currentColor"/>
</svg>
