<svg width="18" height="22" viewBox="0 0 18 22" fill="none" xmlns="http://www.w3.org/2000/svg">
<path d="M14.425 0.199707H5.61817L0.112549 5.70532V18.4347C0.112549 19.4288 0.922992 20.2231 1.90093 20.2231H11.1076C10.9833 19.9745 10.8914 19.7098 10.832 19.4342H1.90093C1.36063 19.4342 0.906768 18.9858 0.906768 18.4401V5.71073H4.31603C5.02922 5.71073 5.61817 5.1218 5.61817 4.40861V0.999347H14.425C14.9653 0.999347 15.4137 1.44779 15.4137 1.99349V14.7229C15.6893 14.7715 15.9594 14.8579 16.208 14.9714V2.0043C16.208 1.01556 15.3975 0.205111 14.4196 0.205111L14.425 0.199707Z" fill="currentColor"/>
<path fill-rule="evenodd" clip-rule="evenodd" d="M14.425 1.78774H6.40695V4.40277C6.40695 5.5482 5.46143 6.49912 4.3106 6.49912H1.69559V18.4397C1.69559 18.5477 1.78744 18.6396 1.8955 18.6396H10.7239C10.7131 17.8886 10.9076 17.143 11.3237 16.4946H3.09494V15.5491H12.1395C12.8203 14.9656 13.6685 14.6414 14.56 14.6414H14.6249V2.00386C14.6249 1.87959 14.533 1.79315 14.425 1.79315V1.78774ZM13.2579 14.5982H3.09494V13.6526H13.2579V14.5982ZM13.2579 12.7125H3.09494V11.767H13.2579V12.7125ZM13.2579 10.8215H3.09494V9.87597H13.2579V10.8215ZM13.2579 8.96828H3.09494V8.02276H13.2579V8.96828Z" fill="currentColor"/>
<path fill-rule="evenodd" clip-rule="evenodd" d="M14.6249 15.2843C12.6528 15.2411 10.9995 17.1321 11.4317 19.2069C11.9558 21.7301 15.095 22.681 16.9266 20.8494C18.9743 18.8017 17.5155 15.2843 14.6195 15.2843H14.6249ZM14.3385 19.9039C14.2143 20.0281 14.0144 20.0281 13.8901 19.9039L12.9176 18.9313L13.366 18.4829L14.117 19.2339L15.8946 17.4563L16.343 17.8994L14.3385 19.9039Z" fill="currentColor"/>
</svg>
