<svg width="25" height="25" viewBox="0 0 25 25" fill="none" xmlns="http://www.w3.org/2000/svg">
<path d="M22.2097 4.83283C19.9461 2.13521 16.5602 0.417419 12.7587 0.417419C5.93713 0.417419 0.417847 5.91808 0.417847 12.7024H5.33559C5.33559 8.6157 8.67195 5.29794 12.7711 5.29794C15.2269 5.29794 17.4036 6.49481 18.7617 8.32423L16.9756 10.0358C16.5788 10.4141 16.8454 11.09 17.3973 11.09H24.3801C24.715 11.09 24.9879 10.811 24.9879 10.4761V3.49951C24.9879 2.95378 24.3243 2.68092 23.9399 3.07161L22.2097 4.83283Z" fill="currentColor"/>
<path d="M12.6347 20.1133C10.1789 20.1133 8.00223 18.9164 6.64412 17.087L8.43014 15.3816C8.82703 15.0033 8.56037 14.3274 8.00844 14.3274H1.02564C0.690761 14.3274 0.417892 14.6064 0.417892 14.9413V21.9179C0.417892 22.4636 1.08145 22.7365 1.46593 22.3458L3.19613 20.5846C5.45965 23.2822 8.84563 25 12.6533 25C19.4749 25 24.9941 19.4993 24.9941 12.715H20.0764C20.0764 16.7955 16.74 20.1195 12.6409 20.1195L12.6347 20.1133Z" fill="currentColor"/>
</svg>
