<svg width="22" height="22" viewBox="0 0 22 22" fill="none" xmlns="http://www.w3.org/2000/svg">
<path d="M19.7997 9.89432C19.7997 10.1302 19.789 10.366 19.7729 10.6018L16.0648 9.12786C15.7058 6.04058 13.0748 3.66079 9.89181 3.66079C6.45701 3.66079 3.67056 6.45328 3.67056 9.89968C3.67056 13.3461 6.29624 15.9778 9.6078 16.1225L10.9957 19.7458C10.6366 19.7833 10.2669 19.8101 9.89181 19.8101C4.42614 19.8101 0 15.3721 0 9.90504C0 4.43797 4.42614 0 9.89181 0C15.3575 0 19.7943 4.43797 19.7943 9.90504L19.7997 9.89432Z" fill="currentColor"/>
<path d="M12.4531 10.355C11.3707 9.94228 10.3097 11.0035 10.7223 12.0862L14.1893 21.139C14.6019 22.2217 16.1022 22.3021 16.6327 21.273L18.2028 18.2233C18.235 18.159 18.2885 18.1054 18.3475 18.0732C19.0762 17.6658 20.5873 16.6207 21.2732 16.2616C22.3021 15.7309 22.2217 14.2302 21.1393 13.8175L12.4531 10.3496V10.355Z" fill="currentColor"/>
</svg>
