<svg width="22" height="26" viewBox="0 0 22 26" fill="none" xmlns="http://www.w3.org/2000/svg">
<path fill-rule="evenodd" clip-rule="evenodd" d="M21.3195 18.7867C19.7904 18.7867 18.5585 17.5386 18.5585 16.0096V9.82861C18.5585 6.37612 16.2353 3.37208 12.9017 2.5022L11.5995 2.17262V1.49725C11.5995 1.16767 11.324 0.908325 11.0106 0.908325C10.681 0.908325 10.4217 1.16767 10.4217 1.49725V2.17262L9.11958 2.5022C5.78595 3.37208 3.44106 6.37072 3.44106 9.82861V16.0096C3.44106 17.5386 2.2092 18.7867 0.680159 18.7867C0.507264 18.7867 0.350586 18.9272 0.350586 19.1163C0.350586 19.2892 0.507264 19.4459 0.680159 19.4459H21.3195C21.5086 19.4459 21.649 19.2892 21.649 19.1163C21.649 18.9434 21.5086 18.7867 21.3195 18.7867Z" fill="currentColor"/>
<path fill-rule="evenodd" clip-rule="evenodd" d="M7.39602 21.4826C7.39602 23.4763 9.01151 25.0917 11.0052 25.0917C12.9989 25.0917 14.6144 23.4763 14.6144 21.4826H7.39602Z" fill="currentColor"/>
</svg>
