<svg width="22" height="20" viewBox="0 0 22 20" fill="none" xmlns="http://www.w3.org/2000/svg">
<path d="M21.104 1.44799C21.104 0.648351 20.4556 0 19.656 0H1.44802C0.648384 0 0 0.648351 0 1.44799V14.0693C0 14.8689 0.648384 15.5173 1.44802 15.5173H7.72626C7.94778 15.5173 8.14768 15.6307 8.26115 15.8198L10.552 19.6938L12.8428 15.8198C12.9563 15.6307 13.1562 15.5173 13.3777 15.5173H19.656C20.4556 15.5173 21.104 14.8689 21.104 14.0693V1.44799ZM11.0005 12.6105C10.8654 12.6861 10.7087 12.724 10.552 12.724C10.3953 12.724 10.2386 12.6861 10.1035 12.6105C5.80819 10.2926 5.65152 7.3372 5.66232 6.76989C5.66232 4.9653 7.01307 3.56055 8.74202 3.56055C9.4336 3.56055 10.0549 3.79287 10.552 4.2251C11.0491 3.79287 11.6704 3.56055 12.362 3.56055C14.0909 3.56055 15.4417 4.9707 15.4417 6.76448V6.78071C15.4525 7.36963 15.2688 10.3034 10.995 12.6105H11.0005Z" fill="currentColor"/>
</svg>
