<svg width="21" height="33" viewBox="0 0 21 33" fill="none" xmlns="http://www.w3.org/2000/svg">
<path d="M17.5123 21.7291C18.1123 22.2248 18.4514 22.7856 18.4514 23.3856C18.4514 25.0616 15.7972 26.4572 12.2625 26.8028C11.7147 26.855 11.1474 26.8811 10.5604 26.8811C9.9735 26.8811 9.39308 26.8485 8.83876 26.7898C5.2976 26.4507 2.65642 25.0551 2.65642 23.3791C2.65642 22.7791 2.99554 22.2248 3.59551 21.7226C1.80863 22.5117 0.713013 23.6073 0.713013 24.8007C0.713013 26.542 3.02813 28.0615 6.37364 28.7463L10.2931 32.6526C10.443 32.8026 10.6843 32.8026 10.8343 32.6526L14.7407 28.7463C18.0927 28.0615 20.4013 26.542 20.4013 24.8007C20.4013 23.6073 19.2927 22.5052 17.5188 21.7226L17.5123 21.7291Z" fill="currentColor"/>
<path d="M10.554 5.34687C11.9757 5.34687 13.1234 4.19909 13.1234 2.77741C13.1234 1.35573 11.9757 0.207947 10.554 0.207947C9.1323 0.207947 7.98452 1.35573 7.98452 2.77741C7.98452 4.19909 9.1323 5.34687 10.554 5.34687Z" fill="currentColor"/>
<path d="M3.49775 15.2923C4.07816 15.6314 4.84119 15.4293 5.1803 14.8358L7.50847 10.8056V23.6202C7.50847 24.318 8.04974 24.8593 8.73449 24.8593C9.41925 24.8593 9.97359 24.318 9.97359 23.6202V16.8509C9.97359 15.8988 11.1148 15.8988 11.1148 16.8509V23.6398C11.1148 24.318 11.6561 24.8658 12.3539 24.8658C13.0517 24.8658 13.58 24.3246 13.58 23.6398V10.7794L15.9277 14.8489C16.2668 15.4423 17.0168 15.651 17.6102 15.3054C18.2037 14.9662 18.4124 14.1967 18.0667 13.6228L14.206 6.91875C13.8343 6.27312 13.1365 5.86227 12.367 5.86227H8.72798C7.96497 5.86227 7.26717 6.27312 6.88893 6.91875L3.02821 13.6228C2.68909 14.2033 2.89126 14.9662 3.48472 15.3054L3.49775 15.2923Z" fill="currentColor"/>
</svg>
