<svg width="26" height="22" viewBox="0 0 26 22" fill="none" xmlns="http://www.w3.org/2000/svg">
<path d="M22.7133 6.96098C22.6308 6.96614 22.5431 6.97645 22.4606 6.99192C20.7638 1.70041 15.0958 -1.21353 9.80426 0.483261C6.71496 1.47349 4.29097 3.89747 3.29559 6.99192C3.21307 6.97645 3.13055 6.96614 3.04288 6.96098C1.33577 6.96098 0 8.74028 0 11.0095C0 13.2788 1.33577 15.053 3.04288 15.053C3.69271 15.0478 4.31676 14.7899 4.78093 14.3361C4.99754 14.1298 5.05943 13.8152 4.94081 13.5419C4.32192 12.1442 4.09499 10.6073 4.27034 9.091C4.28066 9.00332 4.29613 8.91564 4.3116 8.82796C4.34771 8.58556 4.38897 8.34318 4.4457 8.10078C5.5236 3.44363 10.1756 0.545135 14.8327 1.62819C18.051 2.37602 20.5626 4.88771 21.3053 8.10078C21.362 8.33802 21.4033 8.58041 21.4394 8.82796C21.4497 8.91564 21.4703 9.00332 21.4807 9.091C21.5168 9.41591 21.5374 9.74084 21.5374 10.0658C21.5374 10.3649 21.5219 10.6588 21.491 10.9528C21.4807 11.0611 21.46 11.1643 21.4446 11.2674C21.4188 11.4531 21.3981 11.6387 21.3569 11.8193C21.3362 11.9224 21.3053 12.0204 21.2795 12.1184C21.2331 12.3041 21.1918 12.4846 21.1351 12.6651C21.1042 12.7579 21.0681 12.8456 21.032 12.9384C20.9649 13.119 20.903 13.3046 20.8257 13.4851C19.4538 16.6621 16.3284 18.7199 12.8729 18.7199H12.4036C11.4959 18.7199 10.7635 19.4522 10.7635 20.3599C10.7635 21.2676 11.4959 22 12.4036 22H14.2757C15.1783 22 15.9106 21.2728 15.9158 20.3703C15.9158 20.1382 15.8694 19.9061 15.7714 19.6946C18.3243 18.921 20.4646 17.1727 21.7334 14.826C22.0377 14.9601 22.3677 15.0323 22.703 15.0375C24.4101 15.0375 25.7458 13.2582 25.7458 10.9941C25.7458 8.72998 24.4101 6.94549 22.703 6.94549L22.7133 6.96098Z" fill="#C3C3C7"/>
<path d="M6.9061 17.095H12.6773C16.4422 17.1363 19.5985 14.2481 19.8925 10.4935C20.1297 6.6203 17.1848 3.28861 13.3116 3.05137C9.43839 2.81413 6.1067 5.75902 5.86946 9.63224C5.73536 11.7932 6.60697 13.8923 8.2264 15.326L6.6998 16.471C6.54508 16.5896 6.51413 16.8062 6.6276 16.9609C6.69464 17.0486 6.79779 17.1002 6.9061 17.1002V17.095ZM15.6892 9.13198C16.2049 9.13198 16.6278 9.54971 16.6278 10.0706C16.6278 10.5915 16.2101 11.0093 15.6892 11.0093C15.1683 11.0093 14.7505 10.5915 14.7505 10.0706C14.7505 9.54971 15.1683 9.13198 15.6892 9.13198ZM12.8784 9.13198C13.3941 9.13198 13.817 9.54971 13.817 10.0706C13.817 10.5915 13.3993 11.0093 12.8784 11.0093C12.3575 11.0093 11.9397 10.5915 11.9397 10.0706C11.9397 9.54971 12.3575 9.13198 12.8784 9.13198ZM10.0676 9.13198C10.5833 9.13198 11.0062 9.54971 11.0062 10.0706C11.0062 10.5915 10.5885 11.0093 10.0676 11.0093C9.54669 11.0093 9.12894 10.5915 9.12894 10.0706C9.12894 9.54971 9.54669 9.13198 10.0676 9.13198Z" fill="#C3C3C7"/>
</svg>
