<svg width="34" height="28" viewBox="0 0 34 28" fill="none" xmlns="http://www.w3.org/2000/svg">
<path d="M17.209 0.492615C21.9107 0.492615 26.6123 0.492615 31.3139 0.492615C31.4709 0.492615 31.6279 0.492615 31.7849 0.492615C32.6443 0.53393 33.3796 1.27759 33.4127 2.13693C33.4127 2.24435 33.4127 2.35178 33.4127 2.4592C33.4127 10.309 33.4127 18.1588 33.4127 26.0086C33.4127 26.116 33.4127 26.2235 33.4127 26.3309C33.3796 27.0498 32.8756 27.7025 32.1815 27.9174C32.008 27.9669 31.8345 28 31.6445 28C31.5205 28 31.4048 28 31.2809 28C21.8859 28 12.4992 28 3.10418 28C2.97197 28 2.83978 28 2.70757 28C1.74907 27.9834 0.988854 27.182 0.980591 26.2565C0.980591 26.1573 0.980591 26.0665 0.980591 25.9673C0.980591 18.1588 0.980591 10.342 0.980591 2.53354C0.980591 2.42612 0.980591 2.31874 0.980591 2.21132C0.980591 1.55029 1.4268 0.773553 2.33573 0.54219C2.44315 0.517402 2.55058 0.509149 2.65799 0.500886C2.81499 0.500886 2.97199 0.500886 3.12899 0.500886C7.82235 0.500886 12.5074 0.500886 17.2008 0.500886L17.209 0.492615ZM32.1319 8.04497C32.1402 7.96234 32.1567 7.87967 32.1567 7.79704C32.1567 5.9544 32.1567 4.1118 32.1567 2.2609C32.132 2.17827 32.0989 2.07912 32.0576 1.95517C32.0328 1.93039 31.9832 1.8808 31.9502 1.84775C31.8262 1.80644 31.7353 1.78161 31.6609 1.75682H2.75715C2.54231 1.8064 2.40184 1.90559 2.29442 2.1039C2.29442 2.21958 2.28615 2.36831 2.28615 2.50878C2.28615 4.23574 2.28615 5.95444 2.28615 7.6814C2.28615 7.80534 2.29443 7.92102 2.30269 8.04497C2.30269 8.18544 2.27788 8.33414 2.27788 8.47461C2.27788 14.2835 2.27788 20.0924 2.27788 25.9095C2.27788 26.0086 2.27788 26.0995 2.27788 26.1987C2.27788 26.2813 2.29443 26.3639 2.30269 26.4218C2.3688 26.5622 2.4597 26.6449 2.57539 26.6945C2.71586 26.744 2.85629 26.7275 3.00502 26.7275C12.4661 26.7275 21.9354 26.7275 31.3965 26.7275C31.5205 26.7275 31.6361 26.7275 31.7601 26.711C31.7931 26.711 31.8262 26.6945 31.8592 26.6862C31.9584 26.6284 32.041 26.5622 32.0824 26.4796C32.165 26.2978 32.1567 26.1243 32.1567 25.959C32.1567 20.1089 32.1567 14.2669 32.1567 8.41676C32.1567 8.29282 32.1567 8.17718 32.1485 8.05324L32.1319 8.04497Z" fill="currentColor"/>
<path d="M32.1318 8.04392C31.9666 8.04392 31.7931 8.04392 31.6278 8.04392C21.9932 8.04392 12.3668 8.04392 2.73222 8.04392C2.58349 8.04392 2.44304 8.04392 2.29431 8.04392C2.29431 7.91998 2.27777 7.8043 2.27777 7.68035C2.27777 5.95339 2.27777 4.23469 2.27777 2.50773C2.27777 2.36726 2.27778 2.21854 2.28604 2.10286C2.39346 1.90455 2.53393 1.80535 2.74876 1.75578H31.6526C31.7352 1.78057 31.8261 1.81366 31.9418 1.84671C31.9748 1.87976 32.0244 1.92934 32.0492 1.95413C32.0905 2.08634 32.1236 2.17723 32.1484 2.25986C32.1484 4.11076 32.1484 5.95336 32.1484 7.79599C32.1484 7.87862 32.1318 7.96129 32.1236 8.04392H32.1318ZM25.0835 6.63094C25.1744 6.84578 25.3231 6.93666 25.5215 6.92839C25.5545 6.92839 25.5958 6.92839 25.6289 6.92839C27.2319 6.92839 28.8349 6.92839 30.4297 6.92839C30.504 6.92839 30.5784 6.92839 30.6445 6.92839C30.8346 6.90361 30.975 6.76313 30.9915 6.56482C30.9915 6.49046 30.9915 6.42434 30.9915 6.34998C30.9915 5.37495 30.9915 4.39994 30.9915 3.42491C30.9915 3.34228 30.9915 3.25963 30.9915 3.20179C30.9337 3.03654 30.8428 2.94565 30.7106 2.90434C30.2644 2.87955 25.6041 2.88781 25.3314 2.90434C25.2268 2.97044 25.1414 3.07235 25.0753 3.21007C25.0753 4.35035 25.0753 5.50718 25.0753 6.63094H25.0835ZM11.6562 4.42475C11.5901 4.5239 11.6067 4.59825 11.6067 4.66435C11.6067 4.95356 11.6067 5.24275 11.6067 5.53195C11.6067 5.92031 11.6067 6.30043 11.6067 6.68879C11.6067 6.74663 11.6067 6.81275 11.6893 6.86233C11.8215 6.86233 11.9785 6.86233 12.1355 6.86233C12.2346 6.86233 12.3255 6.86233 12.4247 6.86233C12.5073 6.85406 12.5899 6.83754 12.6726 6.81275C13.0692 6.68881 13.3501 6.07734 12.9205 5.67246C12.8709 5.62288 12.813 5.58153 12.7635 5.53195C12.8213 5.4328 12.8791 5.33367 12.9287 5.25104C12.9287 5.18494 12.9453 5.12707 12.9453 5.06923C12.9453 4.99486 12.9287 4.92878 12.9287 4.8792C12.7965 4.58173 12.5652 4.48256 12.2842 4.44951C12.0859 4.42472 11.8794 4.43298 11.6645 4.44951L11.6562 4.42475ZM16.6471 4.42475C16.6057 4.53216 16.5644 4.6148 16.5396 4.68917C16.3661 5.13537 16.1926 5.58983 16.0191 6.03603C15.9364 6.25913 15.8455 6.48219 15.7629 6.71355C15.7464 6.75486 15.7382 6.80449 15.796 6.86233C15.9117 6.87059 16.0356 6.87885 16.1595 6.86233C16.2587 6.76317 16.2669 6.63921 16.3248 6.53179C16.3496 6.48221 16.3661 6.41611 16.457 6.37479C16.6884 6.37479 16.9528 6.37479 17.2172 6.37479C17.275 6.37479 17.3411 6.37479 17.399 6.42437C17.432 6.51526 17.4733 6.6144 17.5064 6.72182C17.5312 6.77966 17.5477 6.8375 17.6221 6.87882C17.713 6.87882 17.8204 6.87882 17.9278 6.87882C17.9526 6.87882 17.9691 6.86232 17.9939 6.85406C17.9939 6.82927 18.0022 6.80446 17.9939 6.77967C17.9939 6.74662 17.9774 6.7053 17.9691 6.67225C17.6882 5.88726 17.2172 4.6974 17.085 4.44951C17.0437 4.44951 16.9941 4.43302 16.9528 4.43302C16.8536 4.43302 16.7627 4.43297 16.6471 4.44124V4.42475ZM14.1847 6.85406C14.1847 6.85406 14.2178 6.821 14.2426 6.79621V5.9038C14.2921 5.89553 14.3335 5.90378 14.35 5.93683C14.4574 6.13514 14.5648 6.34175 14.6722 6.54006C14.73 6.64748 14.7713 6.75489 14.8705 6.84579C15.011 6.84579 15.1514 6.8623 15.2919 6.83751C15.3084 6.76315 15.2754 6.71355 15.2506 6.66397C15.1184 6.40782 14.9779 6.15168 14.8457 5.89553C14.8292 5.86247 14.8292 5.82943 14.8209 5.80465C14.854 5.72202 14.9366 5.7055 14.9862 5.65592C15.044 5.59808 15.1101 5.54025 15.1515 5.46589C15.325 5.15189 15.2341 4.85439 15.0771 4.64781C15.011 4.55692 14.9201 4.4991 14.8127 4.46605C14.697 4.44126 14.573 4.4082 14.4574 4.4082C14.2756 4.39994 14.0938 4.4082 13.912 4.4082C13.879 4.4082 13.8459 4.43297 13.8211 4.44124C13.7881 4.69739 13.7798 6.19302 13.8046 6.7549C13.8046 6.77969 13.8211 6.7962 13.8459 6.83751C13.9533 6.85404 14.069 6.85404 14.193 6.83751L14.1847 6.85406ZM19.8365 4.73874C19.7622 4.60653 19.6548 4.52388 19.5391 4.45778C19.3408 4.3421 19.1342 4.32557 18.9194 4.39993C18.5475 4.53214 18.3905 4.94529 18.5971 5.28407C18.6467 5.3667 18.7128 5.44109 18.7789 5.50719C18.9111 5.63114 19.0433 5.74682 19.1838 5.87076C19.2582 5.93687 19.3243 5.9947 19.3904 6.06907C19.4647 6.15996 19.4812 6.2591 19.4151 6.36652C19.2994 6.4822 19.159 6.48222 18.9607 6.38306C18.9111 6.35827 18.8781 6.21781 18.7293 6.18476C18.6302 6.25086 18.498 6.28389 18.4236 6.4161C18.4897 6.57309 18.5806 6.68877 18.7128 6.77967C18.845 6.87056 18.9938 6.92012 19.1508 6.92012C19.5722 6.92012 19.8779 6.65575 19.9109 6.34176C19.9109 6.29218 19.9275 6.25084 19.9275 6.20952C19.8448 5.86248 19.82 5.81292 19.6052 5.61461C19.4978 5.51546 19.3821 5.42454 19.2747 5.33365C19.192 5.25928 19.1094 5.19316 19.0351 5.11053C18.9937 5.06922 18.9689 5.01143 18.9689 4.95359C18.9689 4.89575 19.0102 4.86267 19.0516 4.82962C19.1342 4.78831 19.2169 4.80483 19.2995 4.82962C19.3986 4.86267 19.4482 4.98663 19.5721 4.99489C19.6548 4.91226 19.7704 4.85441 19.8365 4.7222V4.73874ZM21.704 4.42475C21.6957 4.49911 21.6792 4.54866 21.6792 4.59824C21.6792 4.73871 21.6792 4.88746 21.6792 5.02793C21.6792 5.58154 21.6792 6.13517 21.6792 6.68879C21.6792 6.74663 21.6792 6.81275 21.7536 6.86233C22.0758 6.87059 22.4146 6.87885 22.7451 6.86233C22.7616 6.86233 22.7864 6.8375 22.803 6.82097C22.836 6.73008 22.8278 6.63095 22.8195 6.54006C22.8195 6.51527 22.803 6.49873 22.7947 6.47394C22.7616 6.43263 22.7121 6.43264 22.6625 6.43264C22.5303 6.43264 22.3981 6.43264 22.2659 6.43264C22.2328 6.43264 22.1998 6.40787 22.1832 6.3996C22.1254 6.30871 22.1419 6.22603 22.1419 6.1434C22.1419 5.63936 22.1419 5.13535 22.1419 4.62305C22.1419 4.56521 22.1502 4.49909 22.1006 4.45778C22.0758 4.44952 22.0593 4.43302 22.0345 4.43302C21.9354 4.43302 21.8445 4.43302 21.7123 4.43302L21.704 4.42475ZM20.5389 4.43302C20.5307 4.49912 20.5141 4.5487 20.5141 4.59001C20.5141 4.74701 20.5141 4.90396 20.5141 5.06096C20.5141 5.59805 20.5141 6.14342 20.5141 6.68052C20.5141 6.73836 20.5141 6.80447 20.572 6.84579C20.605 6.84579 20.6381 6.85406 20.6711 6.85406C20.729 6.85406 20.7951 6.85406 20.8529 6.85406C20.886 6.85406 20.919 6.82928 20.9438 6.81275C20.9686 6.5566 20.9769 4.87092 20.9521 4.49908C20.9521 4.48256 20.9272 4.4578 20.9107 4.42475C20.8033 4.39996 20.6877 4.40822 20.5307 4.42475L20.5389 4.43302Z" fill="currentColor"/>
<path d="M9.6501 9.9947C10.3525 10.003 11.0382 9.96993 11.7241 10.0608C12.0546 10.1021 12.3521 10.2095 12.6247 10.3996C13.2362 10.8293 13.451 11.5729 13.2279 12.2505C13.1618 12.4405 13.0544 12.5975 12.9222 12.738C12.8478 12.8124 12.7735 12.895 12.6909 12.9776C12.7157 13.0107 12.7321 13.0438 12.7569 13.0603C12.823 13.1099 12.8974 13.1429 12.9718 13.1925C13.4676 13.5065 13.732 13.9527 13.7816 14.5311C13.8312 15.126 13.6576 15.6466 13.2445 16.0845C12.947 16.4068 12.5587 16.572 12.129 16.6298C11.9141 16.6629 11.6993 16.6711 11.4845 16.6794C10.9226 16.6794 10.3524 16.6794 9.79056 16.6794C9.74098 16.6794 9.69968 16.6712 9.6501 16.6629C9.63357 16.6216 9.61702 16.5885 9.61702 16.5555C9.61702 16.4811 9.61702 16.415 9.61702 16.3406C9.61702 14.341 9.61702 12.3414 9.61702 10.3417C9.61702 10.2343 9.59222 10.1269 9.65832 9.98643L9.6501 9.9947ZM10.9226 13.7709C10.9226 13.7709 10.8813 13.8287 10.8813 13.8535C10.8813 14.3575 10.8813 14.8616 10.8813 15.3656C10.8813 15.3987 10.9143 15.4235 10.9391 15.4565C11.1457 15.4565 11.3523 15.4648 11.5506 15.4565C11.6828 15.4482 11.815 15.4317 11.9389 15.3987C12.2942 15.316 12.5008 15.1094 12.5421 14.7707C12.5752 14.5476 12.5091 14.341 12.3686 14.1592C12.2199 13.9692 12.0215 13.8618 11.7902 13.8205C11.5092 13.7709 11.22 13.7296 10.9143 13.7709H10.9226ZM10.9308 12.614C11.1374 12.6388 11.3274 12.6141 11.5175 12.581C11.8728 12.5066 12.0794 12.2505 12.0794 11.8869C12.0794 11.8621 12.0794 11.8374 12.0794 11.8126C12.0546 11.5481 11.9142 11.3663 11.6663 11.2755C11.5671 11.2424 11.4597 11.2259 11.3523 11.2093C11.2448 11.2011 11.1374 11.2093 11.03 11.2093C10.9804 11.2093 10.9391 11.2176 10.8895 11.2837C10.8895 11.6721 10.8895 12.077 10.8895 12.4901C10.8895 12.5149 10.8978 12.5397 10.906 12.5562C10.906 12.5645 10.9226 12.5727 10.9391 12.6058L10.9308 12.614Z" fill="currentColor"/>
<path d="M24.4315 15.3242C24.101 15.2995 22.5724 15.2829 21.87 15.3077C21.8205 15.3077 21.7791 15.316 21.7461 15.3242C21.6717 15.3821 21.6469 15.4564 21.6222 15.5225C21.4982 15.8365 21.3743 16.1505 21.2503 16.4645C21.2255 16.5306 21.1925 16.5967 21.1594 16.6628C21.0107 16.7042 20.8702 16.6793 20.7297 16.6876C20.5975 16.6876 20.4653 16.6876 20.3331 16.6876C20.1927 16.6876 20.0439 16.6876 19.8952 16.6876C19.8952 16.638 19.8787 16.605 19.8952 16.572C19.9613 16.3984 20.0274 16.2331 20.0935 16.0679C20.8371 14.1509 21.5808 12.2339 22.3245 10.3169C22.3575 10.226 22.3988 10.1351 22.4236 10.0607C22.4897 10.0112 22.5476 10.0112 22.6054 10.0112C22.969 10.0112 23.3243 10.0112 23.6714 10.0112C23.7788 10.1021 23.7953 10.2095 23.8366 10.3086C24.2002 11.2423 24.5555 12.1761 24.9108 13.1015C25.3405 14.2253 25.7784 15.349 26.2081 16.4728C26.2329 16.5306 26.2576 16.5802 26.2411 16.638C26.2163 16.6546 26.1998 16.6793 26.1833 16.6793C25.7866 16.6959 25.39 16.6959 25.0099 16.6793C24.9191 16.6298 24.9108 16.5471 24.886 16.481C24.7621 16.1588 24.6381 15.8283 24.5142 15.506C24.4894 15.4482 24.4646 15.3986 24.4398 15.3325L24.4315 15.3242ZM23.0764 11.8703H23.0434C22.9525 12.0273 22.465 13.2337 22.2006 13.9608C22.2006 13.9774 22.2088 14.0022 22.2171 14.027C22.2419 14.0352 22.2584 14.0517 22.2832 14.0517C22.7955 14.0517 23.316 14.0517 23.8284 14.0517C23.8779 14.0517 23.9193 14.0269 23.944 13.9608C23.6714 13.275 23.3904 12.5727 23.1095 11.8703C23.1095 11.8703 23.0929 11.8621 23.0847 11.8538L23.0764 11.8703Z" fill="currentColor"/>
<path d="M19.2994 16.6466C19.0349 16.6879 18.6052 16.6962 18.0268 16.6714C17.9525 16.6466 17.9277 16.5723 17.8946 16.5061C17.4732 15.7212 17.0601 14.9362 16.6387 14.1512C16.5973 14.0768 16.5643 14.0025 16.5147 13.9281C16.4982 13.9033 16.4569 13.8868 16.4321 13.8703C16.4073 13.8868 16.3908 13.8951 16.3495 13.9198C16.3495 14.209 16.3495 14.5148 16.3495 14.8123C16.3495 15.1262 16.3495 15.4402 16.3495 15.7542C16.3495 16.0517 16.3742 16.3491 16.3329 16.6383C16.3081 16.6549 16.2999 16.6631 16.2916 16.6631C15.9528 16.6631 15.6223 16.6714 15.2835 16.6796C15.2339 16.6796 15.1926 16.6797 15.1431 16.6631C15.1265 16.6218 15.11 16.5888 15.1018 16.5557C15.1018 16.4814 15.1018 16.4152 15.1018 16.3409C15.1018 14.3412 15.1018 12.3416 15.1018 10.342C15.1018 10.2345 15.077 10.1271 15.1348 10.0197C15.1678 10.0114 15.2009 9.99494 15.2339 9.99494C15.7132 9.99494 16.2007 9.99494 16.68 9.99494C17.027 9.99494 17.3741 10.0363 17.7211 10.1024C18.3326 10.2263 18.7209 10.6064 18.9358 11.1683C19.1258 11.6723 19.1093 12.1846 18.9358 12.6887C18.8036 13.0688 18.5226 13.3331 18.1756 13.5315C18.0681 13.5893 17.9607 13.6389 17.8451 13.6967C17.8451 13.7298 17.8451 13.7711 17.8533 13.7959C17.9112 13.9116 17.969 14.0355 18.0351 14.1512C18.4235 14.8866 18.8118 15.6137 19.2002 16.3492C19.2415 16.4318 19.3076 16.5061 19.3158 16.6383L19.2994 16.6466ZM16.3742 12.5812C16.6634 12.6143 16.9444 12.5978 17.2171 12.573C17.308 12.5647 17.4071 12.5316 17.498 12.5069C17.6302 12.4655 17.7211 12.3664 17.7707 12.2342C17.8037 12.1433 17.8203 12.0441 17.8285 11.9533C17.8285 11.7136 17.7542 11.507 17.5393 11.3666C17.4898 11.3335 17.4319 11.3088 17.3988 11.2922C16.9196 11.2179 16.8122 11.2096 16.4486 11.2261C16.4321 11.2261 16.4073 11.2509 16.3908 11.2591C16.3495 11.507 16.3495 12.2011 16.3908 12.573L16.3742 12.5812Z" fill="currentColor"/>
<path d="M22.3387 23.1908C22.3221 22.8024 22.3304 22.4224 22.3387 22.0423C23.2889 20.6376 24.2392 19.2328 25.1894 17.8281C25.2059 17.8033 25.239 17.7786 25.2803 17.7455C25.6108 17.7455 25.9413 17.7455 26.2801 17.7455C26.3379 17.7455 26.3957 17.7455 26.4453 17.7455C26.5032 17.7868 26.5114 17.8281 26.5114 17.8777C26.5114 17.9769 26.5114 18.0678 26.5114 18.1669C26.5114 19.3238 26.5114 20.4805 26.5114 21.6373C26.5114 21.7613 26.5114 21.877 26.5114 21.9762C26.5528 22.0423 26.6023 22.0505 26.6519 22.0505C26.7841 22.0505 26.9163 22.034 27.0486 22.067C27.0651 22.0918 27.0899 22.1084 27.0899 22.1332C27.0899 22.4306 27.0899 22.7363 27.0899 23.0338C27.0899 23.0834 27.0816 23.1247 27.0733 23.1578C27.0485 23.1825 27.0403 23.1991 27.032 23.1991C26.875 23.2073 26.718 23.2156 26.5693 23.2239C26.5197 23.2569 26.5114 23.2982 26.5114 23.3478C26.5114 23.6618 26.5114 23.9758 26.5114 24.2898C26.5114 24.3724 26.5114 24.455 26.5114 24.5377C26.4701 24.5542 26.4371 24.579 26.4123 24.579C26.0652 24.579 25.7099 24.579 25.3629 24.579C25.3381 24.579 25.3216 24.5625 25.2968 24.5542C25.2968 24.5459 25.2803 24.5377 25.272 24.5212C25.272 24.5129 25.2637 24.4963 25.2637 24.4881C25.2637 24.0749 25.2637 23.6701 25.2555 23.2734C25.2059 23.1991 25.1481 23.2073 25.082 23.2073C24.2887 23.2073 23.4955 23.2073 22.694 23.2073C22.5865 23.2073 22.4791 23.2239 22.3387 23.1826V23.1908ZM25.2307 19.9435C25.1563 19.9352 25.1481 19.9765 25.1315 20.0013C24.9911 20.1996 24.8589 20.3979 24.7267 20.5963C24.4375 21.0177 24.1483 21.4473 23.8508 21.877C23.8177 21.9266 23.7681 21.9679 23.8012 22.034C24.0408 22.0671 24.5697 22.0753 25.1233 22.0588C25.1563 22.0588 25.1894 22.0423 25.2224 22.034C25.239 22.0092 25.2555 21.9844 25.2555 21.9679C25.272 21.72 25.2555 20.1831 25.239 19.9435H25.2307Z" fill="currentColor"/>
<path d="M16.5304 23.4142C16.547 23.4803 16.5553 23.5216 16.5553 23.5546C16.5553 23.8769 16.5553 24.2074 16.547 24.5297C16.547 24.5379 16.5304 24.5462 16.5304 24.5545C16.5057 24.5627 16.4892 24.5793 16.4644 24.5793C15.9025 24.5958 12.2502 24.5875 11.9775 24.571C11.961 24.5462 11.9362 24.5131 11.9362 24.4801C11.9362 24.3148 11.9362 24.1413 11.9362 23.9678C12.0354 23.8686 12.1263 23.7778 12.2172 23.6786C12.8287 23.0589 13.4318 22.4392 14.0433 21.8194C14.2994 21.5633 14.5391 21.2989 14.7622 21.0097C14.977 20.7287 15.134 20.423 15.2167 20.076C15.2662 19.8694 15.2579 19.671 15.1836 19.4727C15.1092 19.2744 14.977 19.1174 14.787 19.0265C14.3656 18.8117 13.7789 18.9109 13.5145 19.4232C13.4484 19.5554 13.4071 19.6876 13.3823 19.8363C13.374 19.8941 13.3658 19.952 13.3575 20.0098C13.3162 20.0264 13.2831 20.0511 13.2501 20.0511C12.9113 20.0511 12.5725 20.0511 12.2337 20.0511C12.2089 20.0511 12.1924 20.0346 12.1594 20.0264C12.1594 20.0016 12.1345 19.9685 12.1345 19.9355C12.1345 19.6297 12.209 19.3405 12.3329 19.0596C12.6634 18.3407 13.2087 17.8945 14.002 17.7788C14.2912 17.7375 14.5804 17.7375 14.8614 17.7788C15.2249 17.8367 15.5554 17.9854 15.8281 18.2416C16.2165 18.6051 16.4644 19.0513 16.514 19.5967C16.5305 19.8281 16.5057 20.0512 16.4478 20.2743C16.3487 20.6874 16.1669 21.0675 15.9273 21.4228C15.6133 21.8938 15.2414 22.3235 14.8448 22.7283C14.6548 22.9266 14.4565 23.125 14.2747 23.315C14.2747 23.3481 14.2747 23.3729 14.2747 23.4059H16.5387L16.5304 23.4142Z" fill="currentColor"/>
<path d="M20.604 20.8945C20.7114 20.9854 20.8023 21.0102 20.8849 21.0515C21.4881 21.3821 21.8021 21.8861 21.8186 22.5719C21.8517 23.6048 21.1328 24.2989 20.4718 24.5716C20.2239 24.6707 19.9677 24.7285 19.7033 24.7368C19.4141 24.745 19.1249 24.7451 18.844 24.6707C18.1664 24.4972 17.6954 24.0923 17.4145 23.456C17.3153 23.2329 17.274 23.0181 17.2162 22.605C17.241 22.5885 17.274 22.5637 17.2988 22.5637C17.6706 22.5637 18.0425 22.5637 18.4143 22.5637C18.4226 22.5637 18.4391 22.5719 18.4556 22.5802C18.5052 22.6215 18.4887 22.6876 18.5052 22.7372C18.5217 22.795 18.5382 22.8529 18.563 22.9107C18.7035 23.3073 19.0423 23.5552 19.4637 23.5717C19.5794 23.5717 19.7033 23.5718 19.819 23.547C20.1909 23.4561 20.5627 23.0925 20.5379 22.5884C20.5214 22.2249 20.3561 21.9439 20.0421 21.7621C19.8438 21.6465 19.6207 21.5803 19.3976 21.5473C19.2819 21.5308 19.158 21.5473 19.0423 21.473C19.034 21.4399 19.0175 21.3986 19.0175 21.3655C19.0175 21.0763 19.0175 20.7871 19.0175 20.4979C19.0175 20.4731 19.034 20.4566 19.0588 20.4153C19.1084 20.4153 19.1662 20.3988 19.2241 20.3905C19.3397 20.3657 19.4637 20.3492 19.5794 20.3161C19.7859 20.2583 19.943 20.1343 20.0669 19.9608C20.1247 19.8782 20.1495 19.7873 20.1661 19.6964C20.2239 19.3163 19.9595 19.0023 19.5876 18.961C19.2654 18.9279 18.9927 19.0436 18.8026 19.3163C18.7531 19.3824 18.72 19.4568 18.6705 19.5394C18.2904 19.5559 17.9185 19.5559 17.5467 19.5394C17.5219 19.5394 17.5054 19.5146 17.4806 19.5064C17.4558 19.3824 17.5137 19.275 17.5467 19.1593C17.7615 18.4817 18.2078 18.019 18.8936 17.8207C19.2985 17.705 19.7033 17.705 20.1082 17.8207C20.6122 17.9612 20.9841 18.2669 21.2485 18.7048C21.5955 19.2915 21.546 20.1178 20.8932 20.6632C20.8023 20.7375 20.7032 20.8036 20.5875 20.8945H20.604Z" fill="currentColor"/>
<path d="M9.95284 17.9365C9.96937 18.1017 9.96106 18.2257 9.96106 18.3579C9.96106 20.4154 9.9611 22.4728 9.95284 24.5303C9.95284 24.5386 9.93628 24.5469 9.91976 24.5716C9.89497 24.5716 9.86193 24.5964 9.82888 24.5881C9.47357 24.5799 9.11001 24.6212 8.7547 24.5716C8.74644 24.5716 8.73815 24.5551 8.72162 24.5551C8.6803 24.4394 8.70513 24.3155 8.70513 24.1998C8.70513 22.6381 8.70513 21.0682 8.70513 19.5065C8.70513 19.3908 8.7299 19.2668 8.68859 19.1759C8.63901 19.1098 8.58944 19.1181 8.53986 19.1181C8.24239 19.1181 7.93664 19.1181 7.63917 19.1181C7.55654 19.1181 7.47393 19.1181 7.3913 19.1098C7.3913 19.085 7.38303 19.0768 7.3913 19.0685C7.47393 18.8784 7.87881 18.2174 8.06059 17.9613C8.08538 17.9613 8.10192 17.9447 8.12671 17.9447C8.68033 17.9447 9.23395 17.9447 9.78757 17.9447C9.83715 17.9447 9.87843 17.9448 9.96106 17.9613L9.95284 17.9365Z" fill="currentColor"/>
<path d="M30.6272 6.72247C28.9581 6.72247 27.2477 6.72247 25.5372 6.72247C25.4877 6.72247 25.4381 6.72246 25.4133 6.7142C25.3389 6.68114 25.3059 6.63157 25.2976 6.56547C25.2976 6.50763 25.2976 6.44155 25.2976 6.38371C25.2976 5.40868 25.2976 4.43362 25.2976 3.45859C25.2976 3.38422 25.2976 3.3099 25.3059 3.2438C25.3059 3.21074 25.3389 3.1777 25.3554 3.14464C25.3967 3.13638 25.4463 3.11982 25.4877 3.11156C25.562 3.11156 25.6281 3.11156 25.7025 3.11156C27.2559 3.11156 28.8093 3.11156 30.3628 3.11156C30.4785 3.11156 30.6024 3.0868 30.7181 3.14464C30.7347 3.16117 30.7511 3.17766 30.7759 3.21071C30.7759 3.26029 30.7925 3.31814 30.7925 3.37598C30.7925 4.39232 30.7925 5.4004 30.7925 6.41674C30.7925 6.47458 30.7925 6.54071 30.7842 6.59855C30.7842 6.64813 30.7511 6.68943 30.6272 6.73901V6.72247ZM25.6364 4.88812C25.6364 4.88812 25.6694 4.92117 25.6942 4.93769C26.4049 5.40868 27.1155 5.88791 27.8261 6.3589C27.8839 6.40021 27.9417 6.44982 28.0492 6.44156C28.1483 6.38371 28.264 6.32585 28.3714 6.25974C28.9168 5.92096 29.4538 5.59047 29.9992 5.25169C30.1231 5.17732 30.2471 5.10293 30.3628 5.0203C30.3876 5.00377 30.4041 4.97075 30.4206 4.94596C30.4041 4.92117 30.3958 4.88811 30.3793 4.87984C29.6109 4.36754 28.8424 3.847 28.074 3.35122C28.0327 3.35948 28.0078 3.36772 27.9913 3.37598C27.3385 3.78087 26.6775 4.18578 26.0247 4.59066C25.9256 4.65677 25.8182 4.71459 25.719 4.78069C25.6777 4.80548 25.6447 4.83854 25.6447 4.88812H25.6364Z" fill="currentColor"/>
<path d="M12.0792 5.81472C12.294 5.77341 12.4675 5.81472 12.6162 5.96345C12.6741 6.09566 12.6824 6.21961 12.5832 6.3353C12.4345 6.41792 12.2775 6.45096 12.1122 6.4179C12.0737 6.29671 12.0654 6.09567 12.0874 5.81472H12.0792Z" fill="currentColor"/>
<path d="M12.4741 5.00423C12.5154 5.11991 12.5071 5.23555 12.3997 5.31818C12.3006 5.36775 12.2014 5.38429 12.0857 5.32645C12.0609 5.18598 12.0692 5.04551 12.0775 4.92157C12.1188 4.8472 12.1766 4.84719 12.2427 4.85545C12.3419 4.86372 12.4245 4.90507 12.4824 4.99596L12.4741 5.00423Z" fill="currentColor"/>
<path d="M16.5745 5.92124C16.6737 5.5494 16.7398 5.38416 16.8803 5.16106C16.996 5.33458 17.1034 5.59899 17.1695 5.87993C17.1695 5.87993 17.153 5.89643 17.1447 5.9047C16.9629 5.93775 16.7894 5.90471 16.5745 5.92124Z" fill="currentColor"/>
<path d="M14.7214 4.96205C14.7461 5.01989 14.7709 5.06946 14.7792 5.11077C14.7792 5.20167 14.7462 5.26779 14.6718 5.33389C14.5561 5.3752 14.4156 5.39175 14.2669 5.35043C14.2173 5.20996 14.2421 5.06949 14.2504 4.93728C14.2917 4.88771 14.333 4.87117 14.3826 4.87117C14.49 4.87117 14.5974 4.87942 14.7214 4.96205Z" fill="currentColor"/>
<path d="M28.9907 5.20129C28.999 5.29219 28.9577 5.36653 28.9081 5.43263C28.685 5.77968 28.3627 5.96149 27.9413 5.92844C27.5364 5.89539 27.2472 5.68055 27.082 5.30872C26.9828 5.08562 26.9498 4.84597 27.0489 4.61461C27.1481 4.61461 27.239 4.6146 27.3381 4.60634C27.867 4.59807 28.3545 4.74684 28.7841 5.05257C28.8502 5.10215 28.9163 5.15172 28.9907 5.20129Z" fill="currentColor"/>
<path d="M27.1257 4.4338C27.2496 4.14459 27.4727 3.98758 27.7702 3.90495C27.8528 3.88017 27.9354 3.87191 28.0181 3.85538C28.1007 3.87191 28.1833 3.88016 28.266 3.89668C28.5056 3.95452 28.7122 4.07844 28.8526 4.28502C29.0014 4.49986 29.1005 4.72299 29.0344 4.99567C28.9518 4.94609 28.8774 4.88825 28.7948 4.83867C28.5139 4.65689 28.2081 4.53293 27.8693 4.46683C27.6215 4.41725 27.3735 4.42553 27.1174 4.4338H27.1257Z" fill="currentColor"/>
<path d="M3.28745 23.1331C3.53533 23.1331 3.77496 23.1248 4.01459 23.1578C4.13027 23.1743 4.23769 23.2074 4.32859 23.2818C4.54342 23.4305 4.61775 23.6949 4.54338 23.9345C4.51859 24.0006 4.48559 24.0585 4.43601 24.1081C4.41122 24.1329 4.3864 24.1659 4.35335 24.1907C4.36161 24.199 4.3699 24.2155 4.37816 24.2237C4.40295 24.2403 4.42771 24.2568 4.4525 24.2733C4.62602 24.3807 4.71694 24.5377 4.73346 24.7443C4.74999 24.9509 4.69211 25.1327 4.54338 25.2897C4.43596 25.4054 4.30378 25.4632 4.15505 25.4797C4.08068 25.488 4.00629 25.4963 3.92366 25.4963C3.72535 25.4963 3.52706 25.4963 3.32875 25.4963C3.31222 25.4963 3.2957 25.4963 3.27917 25.4963C3.27917 25.4797 3.2709 25.4714 3.26263 25.4632C3.26263 25.4384 3.26263 25.4136 3.26263 25.3888C3.26263 24.6865 3.26263 23.9841 3.26263 23.2818C3.26263 23.2487 3.26265 23.2074 3.27917 23.1578L3.28745 23.1331ZM3.73363 24.4634C3.73363 24.4634 3.71708 24.4882 3.71708 24.4964C3.71708 24.6699 3.71708 24.8517 3.71708 25.0253C3.71708 25.0335 3.72536 25.0418 3.73363 25.0583C3.80799 25.0583 3.87411 25.0583 3.94847 25.0583C3.99805 25.0583 4.03935 25.0501 4.08893 25.0418C4.21287 25.017 4.28725 24.9426 4.30377 24.8187C4.31204 24.7361 4.2955 24.6699 4.24593 24.6038C4.19635 24.5377 4.12198 24.4964 4.03935 24.4881C3.9402 24.4716 3.84105 24.4551 3.73363 24.4717V24.4634ZM3.7419 24.0585C3.81626 24.0668 3.88237 24.0585 3.94847 24.042C4.07242 24.0172 4.14677 23.9263 4.14677 23.8024C4.14677 23.7941 4.14677 23.7858 4.14677 23.7775C4.14677 23.6867 4.08894 23.6206 3.99805 23.5875C3.965 23.5793 3.92368 23.571 3.89062 23.5627C3.84931 23.5627 3.81625 23.5627 3.77493 23.5627C3.75841 23.5627 3.74188 23.5627 3.72536 23.5875C3.72536 23.7197 3.72536 23.8685 3.72536 24.0089C3.72536 24.0089 3.72536 24.0254 3.72536 24.0337C3.72536 24.0337 3.72536 24.0337 3.73363 24.0502L3.7419 24.0585Z" fill="currentColor"/>
<path d="M6.67431 25.4716C6.58341 25.4881 6.4347 25.4881 6.22813 25.4716C6.20334 25.4633 6.19508 25.4385 6.17855 25.4137C6.02982 25.141 5.88106 24.8601 5.74059 24.5874C5.72406 24.5626 5.71581 24.5379 5.69928 24.5131C5.69928 24.5048 5.68278 24.4965 5.66625 24.4965C5.65799 24.4965 5.6497 24.5048 5.64144 24.5131C5.64144 24.6122 5.64144 24.7197 5.64144 24.8271C5.64144 24.9345 5.64144 25.0502 5.64144 25.1576C5.64144 25.265 5.64144 25.3642 5.64144 25.4716C5.63317 25.4716 5.63316 25.4798 5.6249 25.4798C5.50921 25.4798 5.38528 25.4798 5.26959 25.4798C5.25307 25.4798 5.23654 25.4798 5.22002 25.4798C5.22002 25.4633 5.20353 25.4551 5.20353 25.4468C5.20353 25.422 5.20353 25.3972 5.20353 25.3724C5.20353 24.6701 5.20353 23.9677 5.20353 23.2654C5.20353 23.2323 5.19522 23.191 5.21175 23.1497C5.22001 23.1497 5.23657 23.1414 5.24483 23.1414C5.41009 23.1414 5.5836 23.1414 5.74886 23.1414C5.8728 23.1414 5.99675 23.158 6.11243 23.1828C6.32727 23.2241 6.46776 23.3645 6.54212 23.5546C6.60823 23.7281 6.59996 23.9099 6.54212 24.0917C6.49254 24.2239 6.40165 24.3148 6.2777 24.3891C6.24465 24.4057 6.20332 24.4304 6.16201 24.447C6.16201 24.4552 6.16201 24.4717 6.16201 24.48C6.17853 24.5213 6.20334 24.5627 6.22813 24.604C6.3686 24.8601 6.5008 25.1163 6.64127 25.3724C6.6578 25.4055 6.68258 25.4303 6.68258 25.4716H6.67431ZM5.64971 24.0421C5.74886 24.0504 5.84801 24.0421 5.94716 24.0421C5.98021 24.0421 6.01326 24.0255 6.04631 24.0173C6.09589 24.0008 6.12898 23.9677 6.13725 23.9181C6.14551 23.8851 6.15374 23.852 6.15374 23.819C6.15374 23.7364 6.12895 23.662 6.05459 23.6124C6.03806 23.6041 6.02154 23.5959 6.00501 23.5876C5.83975 23.5629 5.79847 23.5546 5.67452 23.5628C5.67452 23.5628 5.65797 23.5628 5.64971 23.5711C5.63318 23.6537 5.63318 23.9016 5.64971 24.0338V24.0421Z" fill="currentColor"/>
</svg>
