<svg width="28" height="32" viewBox="0 0 28 32" fill="none" xmlns="http://www.w3.org/2000/svg">
<path d="M27.6086 7.94409V13.2423C26.6829 13.1519 25.4801 12.9416 24.1495 12.454C22.4121 11.817 21.1189 10.9461 20.2719 10.2718V20.9803L20.2502 20.9469C20.264 21.1592 20.2719 21.3755 20.2719 21.5937C20.2719 26.9116 15.9461 31.2407 10.6277 31.2407C5.30944 31.2407 0.983643 26.9116 0.983643 21.5937C0.983643 16.2758 5.30944 11.9448 10.6277 11.9448C11.1486 11.9448 11.6596 11.9861 12.1588 12.0667V17.2883C11.6792 17.1172 11.1643 17.0248 10.6277 17.0248C8.1101 17.0248 6.06021 19.0734 6.06021 21.5937C6.06021 24.1141 8.1101 26.1626 10.6277 26.1626C13.1454 26.1626 15.1953 24.1121 15.1953 21.5937C15.1953 21.4994 15.1933 21.405 15.1874 21.3106V0.500977H20.4802C20.4998 0.949214 20.5175 1.40139 20.5372 1.84963C20.5726 2.73235 20.887 3.57966 21.4354 4.27365C22.078 5.08952 23.0273 6.03711 24.3598 6.794C25.6078 7.49978 26.7792 7.8045 27.6086 7.94802V7.94409Z" fill="currentColor"/>
</svg>
