<svg width="30" height="29" viewBox="0 0 30 29" fill="none" xmlns="http://www.w3.org/2000/svg">
<path d="M14.871 28.9393C22.8624 28.9393 29.3407 22.461 29.3407 14.4696C29.3407 6.47827 22.8624 0 14.871 0C6.87964 0 0.401367 6.47827 0.401367 14.4696C0.401367 22.461 6.87964 28.9393 14.871 28.9393Z" fill="currentColor"/>
<path fill-rule="evenodd" clip-rule="evenodd" d="M19.2517 1.99811C18.7618 1.50811 18.101 1.2334 17.4106 1.2334H12.3324C11.642 1.2334 10.9738 1.50811 10.4913 1.99811C10.0013 2.4881 9.72656 3.14883 9.72656 3.83928V25.0872C9.72656 25.7776 10.0013 26.4384 10.4913 26.9284C10.9813 27.4184 11.642 27.693 12.3324 27.693H17.4106C18.101 27.693 18.7618 27.4184 19.2517 26.9284C19.7417 26.4384 20.0164 25.7776 20.0164 25.0872V3.83928C20.0164 3.14883 19.7417 2.4881 19.2517 1.99811Z" fill="#282A2F"/>
<path fill-rule="evenodd" clip-rule="evenodd" d="M14.8706 25.3091C13.2447 25.3091 11.9307 23.9951 11.9307 22.3692C11.9307 20.7433 13.2447 19.4292 14.8706 19.4292C16.4965 19.4292 17.8106 20.7433 17.8106 22.3692C17.8106 23.9951 16.4965 25.3091 14.8706 25.3091Z" fill="#00FF00"/>
<path fill-rule="evenodd" clip-rule="evenodd" d="M14.8706 17.4107C13.2447 17.4107 11.9307 16.0966 11.9307 14.4707C11.9307 12.8448 13.2447 11.5308 14.8706 11.5308C16.4965 11.5308 17.8106 12.8448 17.8106 14.4707C17.8106 16.0966 16.4965 17.4107 14.8706 17.4107Z" fill="#FFFF00"/>
<path fill-rule="evenodd" clip-rule="evenodd" d="M14.8706 9.50295C13.2447 9.50295 11.9307 8.18891 11.9307 6.56302C11.9307 4.93714 13.2447 3.62305 14.8706 3.62305C16.4965 3.62305 17.8106 4.93714 17.8106 6.56302C17.8106 8.18891 16.4965 9.50295 14.8706 9.50295Z" fill="#FF0000"/>
</svg>
