<svg width="21" height="21" viewBox="0 0 21 21" fill="none" xmlns="http://www.w3.org/2000/svg">
<path d="M19.806 5.21815V4.05652C19.806 3.45139 19.3143 2.95971 18.7091 2.95971H8.31926L7.51961 1.37125C7.33051 0.998442 6.95771 0.766113 6.53628 0.766113H1.86272C1.25758 0.766113 0.765915 1.25778 0.765915 1.86291V19.4333C0.765915 20.0385 1.25758 20.5301 1.86272 20.5301H19.4331C20.0383 20.5301 20.53 20.0385 20.53 19.4333V6.25552C20.53 5.78006 20.222 5.37484 19.7951 5.22356L19.806 5.21815ZM10.6533 19.4009C7.10359 19.4009 4.22381 16.5211 4.22381 12.9714C4.22381 9.42166 7.10359 6.54188 10.6533 6.54188C14.2031 6.54188 17.0829 9.42166 17.0829 12.9714C17.0829 16.5211 14.2031 19.4009 10.6533 19.4009ZM19.0711 5.14791H9.64298C9.50251 5.14791 9.37824 5.06687 9.3134 4.9426L8.68126 3.68371H18.7037C18.9091 3.68371 19.0711 3.8458 19.0711 4.05111V5.14791ZM10.6533 7.76295C7.77896 7.76295 5.45029 10.097 5.45029 12.966C5.45029 14.1601 5.85551 15.2569 6.53088 16.1321C6.80643 15.943 7.27648 15.7107 8.05451 15.4189C9.54573 14.8786 9.45928 15.1434 9.45928 14.1438C9.45928 13.4901 9.1243 13.8683 8.90818 12.6256C8.82173 12.1393 8.7623 12.4635 8.584 11.6801C8.49215 11.2749 8.65424 11.2425 8.62722 11.0479C8.61101 10.8534 8.59481 10.6805 8.55699 10.2753C8.50296 9.78906 8.97842 8.48154 10.6155 8.48154C12.2526 8.48154 12.7227 9.77825 12.6794 10.2753C12.647 10.6805 12.6254 10.848 12.6092 11.0479C12.5822 11.2479 12.7443 11.2695 12.6524 11.6801C12.4741 12.4581 12.4039 12.1339 12.3283 12.6256C12.1121 13.8683 11.7771 13.4847 11.7771 14.1438C11.7771 15.1488 11.6853 14.8732 13.1765 15.4189C13.9978 15.7269 14.4732 15.9592 14.7434 16.1537C15.4404 15.2731 15.851 14.1655 15.851 12.966C15.851 10.0916 13.5169 7.76295 10.6479 7.76295H10.6533Z" fill="currentColor"/>
</svg>
