<svg width="18" height="18" viewBox="0 0 18 18" fill="none" xmlns="http://www.w3.org/2000/svg">
<path d="M8.99786 7.86992e-07C4.0294 1.22135e-06 -1.22135e-06 4.02941 -7.86618e-07 9.00214C-3.51889e-07 13.9749 4.0294 18 8.99787 18C13.9663 18 18 13.9706 18 9.00213C18 4.03367 13.9706 3.52262e-07 8.99786 7.86992e-07ZM8.97652 14.7389C8.21247 14.7389 7.59355 14.1243 7.59355 13.3602C7.59355 12.5962 8.21247 11.9772 8.97652 11.9772C9.74057 11.9772 10.3552 12.5962 10.3552 13.3602C10.3552 14.1243 9.7363 14.7389 8.97652 14.7389ZM10.6241 5.59165L10.4022 9.5485C10.3595 10.2869 9.74484 10.8674 9.0064 10.8674C8.26796 10.8674 7.65331 10.2869 7.61062 9.55276L7.37159 5.52763L7.37159 4.65687C7.37159 3.88855 7.99905 3.26109 8.77164 3.26109L9.22836 3.26109C9.99668 3.26109 10.6241 3.88855 10.6241 4.65687L10.6241 5.59165Z" fill="currentColor"/>
</svg>
