<svg width="22" height="22" viewBox="0 0 22 22" fill="none" xmlns="http://www.w3.org/2000/svg">
<path d="M10.838 0C4.85149 0 -0.000366211 4.85187 -0.000366211 10.8384C-0.000366211 16.8248 4.85149 21.6767 10.838 21.6767C16.8244 21.6767 21.6763 16.8248 21.6763 10.8384C21.6763 4.85187 16.8244 0 10.838 0ZM17.1054 15.4795C16.5867 16.2845 16.1329 17.122 13.9555 17.1706C11.7295 17.1706 9.4278 15.3282 7.74748 13.4912C6.07256 11.8649 4.52731 9.75775 4.52731 7.72083C4.57593 5.54344 5.4134 5.0896 6.21844 4.57092C6.21844 4.57092 6.66148 4.38721 7.04509 4.7222C7.4287 5.05718 9.11442 6.73749 9.11442 6.73749C9.11442 6.73749 9.71415 7.23457 9.29812 7.79107C8.96854 8.22871 8.21213 9.04457 8.11487 9.14722L8.40123 9.68211C8.78484 10.3089 9.50884 11.411 10.5948 12.3025C11.3296 12.9023 12.5669 13.5668 12.5669 13.5668C12.7452 13.3993 13.4854 12.7132 13.896 12.4052C14.4471 11.9946 14.9496 12.5889 14.9496 12.5889C14.9496 12.5889 16.6353 14.2746 16.9703 14.6582C17.3053 15.0419 17.1162 15.4849 17.1162 15.4849L17.1054 15.4795Z" fill="currentColor"/>
</svg>
