<svg width="36" height="26" viewBox="0 0 36 26" fill="none" xmlns="http://www.w3.org/2000/svg">
<path d="M35.581 6.82309C35.3609 4.69789 34.8872 2.34858 33.1439 1.11396C31.7937 0.156542 30.019 0.121147 28.3622 0.123113C24.8599 0.123113 21.3556 0.129019 17.8533 0.130985C14.4846 0.134917 11.116 0.13688 7.74732 0.140812C6.34011 0.140812 4.97221 0.0326821 3.66523 0.642128C2.543 1.16507 1.66448 2.15985 1.13579 3.26669C0.402705 4.80603 0.249414 6.54983 0.160972 8.25235C-0.00215467 11.3527 0.0155337 14.4608 0.210106 17.5592C0.353579 19.82 0.717167 22.3188 2.46439 23.7598C4.0131 25.0357 6.1986 25.0986 8.20721 25.1006C14.5829 25.1065 20.9606 25.1124 27.3382 25.1163C28.1558 25.1183 29.0088 25.1026 29.8421 25.0121C31.4812 24.8352 33.0437 24.3653 34.0971 23.1504C35.1604 21.9256 35.4336 20.2211 35.5948 18.607C35.9878 14.6908 35.9839 10.7373 35.581 6.82309ZM14.1662 18.1096V7.12978L23.6708 12.6187L14.1662 18.1096Z" fill="currentColor"/>
</svg>
